<?xml version="1.0" encoding="iso-8859-1"?>
<!-- Generator: Adobe Illustrator 16.0.4, SVG Export Plug-In . SVG Version: 6.00 Build 0)  -->
<!DOCTYPE svg PUBLIC "-//W3C//DTD SVG 1.1//EN" "http://www.w3.org/Graphics/SVG/1.1/DTD/svg11.dtd">
<svg version="1.1" id="Layer_1" xmlns="http://www.w3.org/2000/svg" xmlns:xlink="http://www.w3.org/1999/xlink" x="0px" y="0px"
	 width="612px" height="792px" viewBox="0 0 612 792" style="enable-background:new 0 0 612 792;" xml:space="preserve">
<path style="fill:#81A7AA;" d="M134.849,310.471v-68.56H38.357v340.262h96.492V456.479c0-81.258,39.359-119.98,103.475-119.98h5.078
	V235.562C186.268,233.024,154.529,263.495,134.849,310.471z M86.338,210.6c29.204,0,52.878-23.674,52.878-52.878
	s-23.674-52.879-52.878-52.879c-29.204,0-52.879,23.675-52.879,52.879S57.134,210.6,86.338,210.6z"/>
<path style="fill:#D7A62B;" d="M458.381,235.562c-46.341,0-81.891,19.045-111.725,53.957c-15.77-30.412-44.051-49.294-81.255-53.177
	v345.831h96.488V392.36c0-45.709,22.222-69.196,58.408-69.196c36.18,0,56.496,23.487,56.496,69.196v189.812h96.492V360.617
	C573.285,278.728,530.115,235.562,458.381,235.562z M313.646,210.6c29.199,0,52.875-23.674,52.875-52.878
	s-23.676-52.879-52.875-52.879c-29.204,0-52.878,23.675-52.878,52.879S284.443,210.6,313.646,210.6z M525.039,210.6
	c29.203,0,52.879-23.674,52.879-52.878s-23.676-52.879-52.879-52.879c-29.204,0-52.879,23.675-52.879,52.879
	S495.835,210.6,525.039,210.6z"/>
<g>
	<path d="M38.485,648.878c0-2.856-0.42-8.904-0.42-10.92h5.04c0.084,2.855,0.168,6.048,0.336,6.804
		c2.52-4.536,6.552-7.812,12.348-7.812c1.008,0,1.932,0.168,2.94,0.42l-0.588,4.956c-0.756-0.252-1.428-0.336-1.932-0.336
		c-8.736,0-12.684,6.048-12.684,13.607v21.168h-5.04V648.878z"/>
	<path d="M99.217,669.458c-3.948,5.88-9.912,8.315-16.8,8.315c-11.844,0-19.656-8.483-19.656-20.496
		c0-11.592,8.064-20.327,19.404-20.327c11.928,0,18.228,9.155,18.228,18.144v3.528H67.802c0,4.199,2.94,14.615,14.7,14.615
		c5.124,0,10.5-2.688,13.02-6.888L99.217,669.458z M95.354,654.086c0-6.889-5.964-12.601-13.44-12.601
		c-11.004,0-14.112,10.584-14.112,12.601H95.354z"/>
	<path d="M111.734,666.854c2.1,4.116,6.72,6.384,11.256,6.384c4.368,0,8.904-2.688,8.904-7.14c0-10.668-23.016-3.192-23.016-17.976
		c0-7.561,6.888-11.172,13.272-11.172c6.3,0,11.172,2.352,13.692,7.308l-4.536,2.688c-1.932-3.527-4.62-5.46-9.156-5.46
		c-3.612,0-8.232,2.185-8.232,6.217c0,10.5,23.016,2.352,23.016,18.06c0,7.979-6.636,12.012-14.028,12.012
		c-6.636,0-12.6-2.52-15.624-7.896L111.734,666.854z"/>
	<path d="M181.705,669.458c-3.948,5.88-9.912,8.315-16.8,8.315c-11.844,0-19.656-8.483-19.656-20.496
		c0-11.592,8.064-20.327,19.404-20.327c11.928,0,18.228,9.155,18.228,18.144v3.528H150.29c0,4.199,2.94,14.615,14.7,14.615
		c5.124,0,10.5-2.688,13.02-6.888L181.705,669.458z M177.841,654.086c0-6.889-5.964-12.601-13.44-12.601
		c-11.004,0-14.112,10.584-14.112,12.601H177.841z"/>
	<path d="M224.293,660.47c0,7.56,0.168,11.844,0.756,16.296h-4.704c-0.336-1.932-0.504-4.116-0.504-6.3h-0.168
		c-2.856,4.956-7.056,7.308-13.608,7.308c-6.636,0-13.692-3.275-13.692-11.508c0-11.844,13.86-13.02,21.504-13.02h5.88v-2.353
		c0-6.72-4.704-9.408-10.92-9.408c-4.536,0-8.4,1.429-11.844,4.368l-2.94-3.443c3.696-3.528,9.744-5.46,14.784-5.46
		c9.408,0,15.456,4.199,15.456,14.027V660.47z M214.213,657.277c-8.4,0-16.8,2.101-16.8,8.736c0,4.788,4.62,7.224,8.82,7.224
		c10.752,0,13.524-6.888,13.524-13.355v-2.604H214.213z"/>
	<path d="M237.733,648.878c0-2.856-0.42-8.904-0.42-10.92h5.04c0.084,2.855,0.168,6.048,0.336,6.804
		c2.52-4.536,6.552-7.812,12.348-7.812c1.008,0,1.932,0.168,2.94,0.42l-0.588,4.956c-0.756-0.252-1.428-0.336-1.932-0.336
		c-8.736,0-12.684,6.048-12.684,13.607v21.168h-5.04V648.878z"/>
	<path d="M296.701,671.054c-3.78,4.536-8.736,6.72-14.28,6.72c-11.928,0-20.412-8.567-20.412-20.412
		c0-11.844,8.484-20.411,20.412-20.411c5.628,0,10.668,2.436,14.448,6.72l-4.032,3.023c-2.939-3.191-6.384-5.208-10.416-5.208
		c-9.492,0-15.372,7.141-15.372,15.876c0,8.736,5.879,15.876,15.372,15.876c4.2,0,7.812-2.184,10.416-5.376L296.701,671.054z"/>
	<path d="M304.596,613.262h5.04v31.5h0.168c2.017-4.284,6.973-7.812,13.272-7.812c12.096,0,14.783,8.231,14.783,16.716v23.1h-5.039
		v-22.848c0-6.3-1.765-12.433-9.744-12.433c-7.477,0-13.44,5.208-13.44,15.876v19.404h-5.04V613.262z"/>
	<path d="M350.292,636.95h7.056v6.216h0.168c0.757-2.353,5.628-7.225,12.769-7.225c5.88,0,9.912,2.521,12.432,7.393
		c2.604-4.872,7.812-7.393,12.6-7.393c12.265,0,15.12,8.736,15.12,17.641v23.184h-7.56V654.59c0-6.048-1.26-11.592-8.568-11.592
		c-7.308,0-10.164,4.956-10.164,12.012v21.756h-7.56v-20.832c0-7.56-1.092-12.936-8.4-12.936c-5.46,0-10.332,4.115-10.332,13.104
		v20.664h-7.56V636.95z"/>
	<path d="M422.027,641.822c4.2-3.948,10.248-5.881,15.792-5.881c11.76,0,16.632,6.385,16.632,13.272v20.328
		c0,2.771,0.084,5.124,0.336,7.224h-6.72c-0.168-2.016-0.252-4.032-0.252-6.048h-0.168c-3.36,5.124-7.896,7.056-13.944,7.056
		c-7.392,0-13.775-4.2-13.775-11.928c0-10.248,9.828-13.776,21.924-13.776h5.544v-1.68c0-4.116-3.024-8.399-9.492-8.399
		c-5.796,0-8.568,2.436-11.34,4.535L422.027,641.822z M443.363,657.613c-7.14,0-15.876,1.261-15.876,7.645
		c0,4.536,3.36,6.468,8.568,6.468c8.399,0,11.34-6.216,11.34-11.592v-2.521H443.363z"/>
	<path d="M486.791,643.502h-10.836v18.06c0,4.452,0,9.156,5.712,9.156c1.764,0,3.864-0.252,5.376-1.176v6.888
		c-1.764,1.008-5.292,1.344-6.804,1.344c-11.676,0-11.844-7.14-11.844-13.523v-20.748h-8.736v-6.552h8.736v-11.172h7.56v11.172
		h10.836V643.502z"/>
	<path d="M525.01,647.534c-2.771-2.94-5.712-4.452-9.911-4.452c-8.232,0-12.433,6.636-12.433,14.111
		c0,7.477,5.04,13.524,12.853,13.524c4.199,0,7.14-1.512,9.659-4.452l5.376,5.376c-3.947,4.368-9.323,6.132-15.119,6.132
		c-12.265,0-20.832-8.483-20.832-20.748c0-12.264,8.399-21,20.832-21c5.796,0,11.34,2.017,15.287,6.301L525.01,647.534z"/>
	<path d="M537.021,613.262h7.56v29.82h0.169c1.932-4.2,6.972-7.141,13.104-7.141c7.728,0,14.448,4.62,14.448,15.204v25.62h-7.561
		v-23.52c0-7.477-4.284-10.248-9.071-10.248c-6.301,0-11.089,4.031-11.089,13.271v20.496h-7.56V613.262z"/>
</g>
</svg>
