<?xml version="1.0" encoding="utf-8"?>
<!-- Generator: Adobe Illustrator 27.9.0, SVG Export Plug-In . SVG Version: 6.00 Build 0)  -->
<svg version="1.1" xmlns="http://www.w3.org/2000/svg" xmlns:xlink="http://www.w3.org/1999/xlink" x="0px" y="0px"
	 viewBox="0 0 150 150" style="enable-background:new 0 0 150 150;" xml:space="preserve">
<style type="text/css">
	.st0{display:none;}
	.st1{display:inline;}
	.st2{fill:none;stroke:#FFFFFF;stroke-width:4.461;stroke-linecap:round;stroke-linejoin:round;stroke-miterlimit:22.9256;}
	.st3{fill:none;stroke:#FFFFFF;stroke-width:4.7797;stroke-linecap:round;stroke-linejoin:round;stroke-miterlimit:22.9256;}
	.st4{fill:none;stroke:#FFFFFF;stroke-width:4.4161;stroke-linecap:round;stroke-linejoin:round;stroke-miterlimit:22.9256;}
	.st5{fill:#990000;}
	.st6{fill:#FFFFFF;}
	.st7{fill:#00843D;}
	.st8{fill:#006296;}
</style>
<g id="white_icons" class="st0">
</g>
<g id="green_icons">
</g>
<g id="blue_icons">
	<g>
		<g>
			<g>
				<path class="st8" d="M144.01,69.49l-17.08-23.35c-0.44-0.6-1.15-0.96-1.88-0.96H100.3V32.85H5.54v69.71H7.8
					c0,8.05,6.51,14.58,14.55,14.58c7.73,0,14.01-6,14.52-13.57h16.76c0.52,7.58,6.81,13.58,14.52,13.58c7.71,0,14-6,14.51-13.58
					h14.99h0.01c0.06,0,0.1-0.03,0.16-0.03c0.06,0,0.1,0.03,0.16,0.03h6.72c0.51,7.58,6.8,13.58,14.51,13.58s14-6,14.51-13.58h8.41
					c0.62,0,1.21-0.25,1.65-0.68c0.44-0.44,0.68-1.02,0.68-1.65V70.87C144.46,70.38,144.31,69.89,144.01,69.49z M137.61,68.65
					h-25.18V49.85h11.43L137.61,68.65z M22.35,112.48c-5.44-0.01-9.87-4.44-9.88-9.92c0-0.75,0.08-1.5,0.28-2.24
					c0.26-1.1,0.68-2.08,1.26-3.02c0.17-0.23,0.3-0.44,0.43-0.61l0.13-0.18l0.01-0.02c0.12-0.14,0.23-0.28,0.34-0.41l0.06-0.05
					l0.15-0.17c0.23-0.25,0.32-0.35,0.39-0.41l0.01-0.01c0.05-0.05,0.12-0.1,0.23-0.21c0.1-0.08,0.24-0.19,0.42-0.35l0.07-0.04
					l0.17-0.14c0.21-0.17,0.48-0.35,0.82-0.56c0.1-0.06,0.25-0.15,0.38-0.23c0.06-0.03,0.1-0.06,0.12-0.07
					c0.01-0.01,0.01-0.01,0.01-0.01l0.14-0.05l0.16-0.09c0.14-0.08,0.26-0.14,0.28-0.15c0.09-0.03,0.14-0.05,0.18-0.08l0.21-0.05
					l0.27-0.14h0.01c0.07-0.02,0.18-0.06,0.35-0.13c-0.03,0.01,0.09-0.01,0.18-0.03l0.11-0.03l0.1-0.04c0,0,0.06-0.01,0.34-0.06
					c0.37-0.1,0.48-0.13,0.48-0.13c0.03-0.01,0.26-0.04,0.57-0.08c0.08-0.01,0.14-0.01,0.18-0.03h0.03l0.14-0.01
					c0.21-0.03,0.5-0.04,0.86-0.04c0.39,0,0.65,0.01,0.87,0.04l0.14,0.01h0.06c0.06,0.01,0.16,0.03,0.28,0.03
					c0.2,0.03,0.39,0.06,0.51,0.08c-0.02-0.01,0.12,0.04,0.34,0.09c0.22,0.06,0.32,0.06,0.37,0.08c0.01,0.01,0.01,0,0.01,0
					l0.14,0.06l0.2,0.04c0.05,0.01,0.12,0.02,0.22,0.06c0.2,0.06,0.27,0.1,0.32,0.12l0.23,0.12l0.18,0.03
					c0.03,0.01,0.09,0.04,0.17,0.07c0.02,0.02,0.18,0.09,0.32,0.17l0.13,0.08l0.08,0.03c0.04,0.02,0.1,0.05,0.17,0.1
					c0.12,0.06,0.26,0.14,0.46,0.25c0.3,0.2,0.54,0.37,0.72,0.51l0.24,0.2l0.11,0.06c0.11,0.1,0.19,0.17,0.26,0.23
					c0.15,0.14,0.27,0.25,0.33,0.29c0.12,0.12,0.25,0.26,0.38,0.4c0.06,0.06,0.1,0.1,0.12,0.12l0.05,0.06
					c0.07,0.09,0.19,0.23,0.35,0.43c0.09,0.14,0.19,0.26,0.28,0.34c0.03,0.05,0.06,0.08,0.08,0.14l0.01,0.02l0.21,0.32
					c0.59,0.93,1.01,1.93,1.26,2.99l0.13,0.53c0.1,0.59,0.15,1.17,0.15,1.73C32.23,108.04,27.82,112.46,22.35,112.48z M68.15,112.48
					c-5.46-0.01-9.89-4.44-9.9-9.91c0-0.76,0.1-1.5,0.28-2.24c0.26-1.09,0.68-2.06,1.26-3c0.16-0.24,0.3-0.46,0.43-0.63l0.12-0.16
					l0.01-0.02c0.12-0.14,0.24-0.3,0.36-0.43l0.06-0.05l0.14-0.17c0.23-0.25,0.32-0.35,0.39-0.41l0.03-0.03
					c0.04-0.04,0.11-0.1,0.21-0.19c0.1-0.08,0.24-0.19,0.41-0.35l0.06-0.03l0.18-0.14c0.21-0.18,0.48-0.35,0.81-0.56
					c0.1-0.05,0.23-0.14,0.34-0.22c0.09-0.04,0.15-0.08,0.19-0.09c0.01,0,0.01-0.01,0.01-0.01l0.12-0.03l0.17-0.1
					c0.13-0.08,0.26-0.15,0.29-0.15c0.08-0.03,0.13-0.05,0.16-0.07l0.22-0.05l0.27-0.14h0.01c0.06-0.03,0.17-0.06,0.34-0.12
					c0,0,0.1-0.02,0.19-0.04l0.1-0.03l0.1-0.04c0,0,0.06-0.01,0.35-0.06c0.35-0.1,0.47-0.13,0.48-0.13
					c0.02-0.01,0.26-0.04,0.57-0.08c0.07,0,0.13-0.01,0.17-0.02h0.03l0.15-0.02c0.21-0.03,0.49-0.04,0.87-0.04
					c0.39,0,0.63,0.01,0.86,0.04l0.15,0.02h0.06c0.06,0.01,0.15,0.02,0.28,0.03c0.19,0.02,0.39,0.05,0.51,0.07
					c-0.03-0.01,0.11,0.04,0.34,0.09c0.23,0.06,0.33,0.07,0.37,0.08c0.01,0,0.01,0,0.01,0l0,0l0.14,0.06l0.19,0.04
					c0.06,0.01,0.12,0.02,0.23,0.06c0.19,0.07,0.27,0.1,0.32,0.13l0.23,0.12l0.19,0.03c0.03,0.01,0.09,0.04,0.17,0.07
					c0.03,0.01,0.19,0.09,0.32,0.17l0.13,0.07l0.08,0.04l0,0c0.03,0.01,0.1,0.05,0.2,0.1c0.1,0.06,0.23,0.14,0.43,0.24
					c0.3,0.2,0.55,0.37,0.72,0.52l0.25,0.21l0.1,0.05c0.11,0.1,0.2,0.17,0.26,0.23c0.14,0.14,0.27,0.25,0.33,0.3
					c0.11,0.12,0.24,0.26,0.38,0.4c0.04,0.05,0.08,0.1,0.12,0.12l0.05,0.06c0.08,0.09,0.19,0.23,0.36,0.43
					c0.09,0.14,0.17,0.25,0.27,0.34c0.02,0.03,0.06,0.08,0.1,0.14l0.01,0.02l0.19,0.32c0.6,0.95,1.01,1.94,1.27,3l0.12,0.54
					c0.1,0.59,0.17,1.16,0.17,1.73C78.03,108.04,73.62,112.46,68.15,112.48z M79.84,93.86L79.7,93.7l-0.03-0.03l-0.01-0.01
					l-0.08-0.09c-0.09-0.09-0.23-0.28-0.45-0.53c-0.24-0.3-0.39-0.41-0.39-0.42c-0.09-0.1-0.3-0.32-0.5-0.52
					c-0.11-0.1-0.19-0.18-0.24-0.23l-0.03-0.03c-0.27-0.25-0.45-0.39-0.54-0.48l-0.06-0.06l-0.08-0.07c-0.14-0.12-0.3-0.22-0.44-0.3
					c-0.38-0.3-0.73-0.53-1.03-0.74l-0.1-0.06l-0.13-0.06c-0.04-0.01-0.17-0.1-0.39-0.22c-0.09-0.06-0.26-0.16-0.57-0.3
					c-0.19-0.1-0.39-0.21-0.63-0.31c-0.1-0.04-0.28-0.14-0.59-0.23c-0.27-0.12-0.47-0.19-0.59-0.23c-0.22-0.06-0.41-0.12-0.61-0.17
					c-0.42-0.15-0.7-0.18-0.86-0.21c0.04,0.01-0.12-0.05-0.38-0.1c-0.45-0.1-0.75-0.12-0.97-0.16c-0.1-0.01-0.13-0.01-0.13-0.01
					c-0.07-0.01-0.19-0.03-0.34-0.04c-0.52-0.06-0.97-0.06-1.38-0.06c-0.42,0-0.9,0.01-1.44,0.07c-0.3,0.03-0.35,0.06-0.36,0.04
					c-0.25,0.04-0.56,0.06-0.99,0.16c-0.31,0.06-0.47,0.12-0.48,0.12c-0.09,0.01-0.39,0.06-0.8,0.19c-0.15,0.04-0.33,0.1-0.52,0.15
					c-0.13,0.05-0.34,0.11-0.67,0.26c-0.31,0.09-0.48,0.18-0.55,0.21c-0.25,0.11-0.46,0.2-0.63,0.3c-0.34,0.16-0.51,0.26-0.53,0.26
					l-0.08,0.04L61,89.88c-0.16,0.11-0.31,0.21-0.41,0.26c-0.4,0.26-0.78,0.5-1.18,0.81c-0.14,0.08-0.32,0.21-0.54,0.42
					c-0.04,0.04-0.21,0.17-0.47,0.4l-0.23,0.19l-0.02,0.04c-0.03,0.02-0.06,0.06-0.1,0.1c-0.23,0.22-0.41,0.41-0.52,0.55
					c-0.17,0.17-0.23,0.26-0.24,0.26c-0.28,0.3-0.47,0.55-0.65,0.77l-0.08,0.09l-0.04,0.07C56.5,93.86,56.46,93.9,56.4,94
					c-0.18,0.25-0.34,0.49-0.49,0.7l-0.01,0.02c-0.83,1.33-1.42,2.7-1.79,4.17H36.45l-0.32-1.47h-0.17
					c-0.31-0.8-0.68-1.57-1.11-2.28l-0.02-0.11l-0.23-0.34c-0.11-0.17-0.28-0.43-0.5-0.75l-0.03-0.06L33.9,93.7l-0.03-0.04
					l-0.01-0.02l-0.06-0.06c-0.09-0.1-0.24-0.3-0.48-0.58c-0.22-0.27-0.36-0.36-0.35-0.37c-0.09-0.11-0.29-0.32-0.5-0.53
					c-0.13-0.12-0.22-0.21-0.28-0.24v-0.01c-0.27-0.25-0.45-0.39-0.54-0.48l-0.06-0.06l-0.08-0.07c-0.13-0.11-0.29-0.21-0.43-0.29
					c-0.38-0.3-0.74-0.53-1.04-0.74l-0.11-0.08l-0.12-0.05c-0.03-0.02-0.17-0.1-0.39-0.23c-0.08-0.05-0.26-0.16-0.57-0.3
					c-0.19-0.1-0.4-0.21-0.64-0.31c-0.1-0.04-0.27-0.13-0.57-0.22c-0.28-0.12-0.49-0.19-0.61-0.24c-0.22-0.07-0.41-0.13-0.63-0.18
					c-0.39-0.14-0.68-0.17-0.84-0.21c-0.01-0.01-0.17-0.05-0.37-0.1c-0.45-0.1-0.75-0.12-0.96-0.15c-0.1-0.01-0.14-0.02-0.14-0.02
					c-0.06-0.01-0.19-0.03-0.34-0.04c-0.51-0.06-0.97-0.06-1.39-0.06c-0.41,0-0.89,0-1.43,0.06c-0.3,0.03-0.36,0.06-0.36,0.04
					c-0.26,0.04-0.57,0.06-1,0.16c-0.3,0.06-0.47,0.12-0.48,0.12c-0.09,0.01-0.38,0.06-0.79,0.19c-0.16,0.04-0.34,0.1-0.55,0.17
					c-0.12,0.04-0.33,0.1-0.66,0.26c-0.31,0.09-0.48,0.18-0.55,0.21c-0.26,0.11-0.48,0.21-0.65,0.31c-0.32,0.14-0.48,0.25-0.5,0.25
					l-0.08,0.05l-0.08,0.04c-0.17,0.1-0.32,0.2-0.41,0.26c-0.39,0.26-0.79,0.5-1.18,0.81c-0.13,0.08-0.32,0.21-0.52,0.39
					c-0.08,0.08-0.23,0.21-0.5,0.43l-0.21,0.17l-0.03,0.04c-0.03,0.03-0.08,0.08-0.12,0.12c-0.23,0.23-0.39,0.41-0.5,0.55
					c-0.18,0.17-0.23,0.26-0.25,0.26c-0.28,0.3-0.47,0.55-0.65,0.77l-0.07,0.1l-0.05,0.06c-0.02,0.03-0.06,0.08-0.12,0.18
					c-0.14,0.19-0.28,0.39-0.4,0.57V37.53h85.42v8.89c-0.18,0.33-0.3,0.7-0.3,1.09v51.39H82.24l-0.33-1.46h-0.15
					c-0.3-0.8-0.68-1.57-1.11-2.28l-0.02-0.11l-0.23-0.34c-0.12-0.19-0.29-0.45-0.52-0.78L79.84,93.86z M119.21,112.48
					c-5.46-0.01-9.88-4.44-9.89-9.91c0-0.76,0.1-1.5,0.28-2.24c0.26-1.09,0.66-2.06,1.25-3c0.18-0.26,0.32-0.46,0.44-0.63l0.12-0.16
					l0.01-0.03c0.01-0.01,0.02-0.02,0.02-0.02c0.06-0.08,0.19-0.24,0.32-0.39l0.05-0.03l0.16-0.19c0.23-0.25,0.32-0.35,0.39-0.41
					l0.04-0.04c0.04-0.04,0.12-0.1,0.2-0.19c0.1-0.08,0.23-0.19,0.4-0.34l0.08-0.04l0.18-0.14c0.21-0.17,0.48-0.34,0.81-0.55
					c0.1-0.06,0.22-0.14,0.34-0.21c0.1-0.05,0.16-0.08,0.18-0.1l0.12-0.04l0.18-0.1c0.12-0.08,0.26-0.14,0.28-0.15
					c0.08-0.03,0.12-0.05,0.16-0.07l0.22-0.05l0.27-0.14h0.01c0.06-0.03,0.17-0.06,0.34-0.13c-0.03,0.01,0.08-0.01,0.18-0.03
					l0.1-0.03l0.1-0.04c0,0,0.06-0.01,0.35-0.06c0.36-0.1,0.48-0.13,0.48-0.13c0.03-0.01,0.26-0.04,0.57-0.08
					c0.07-0.01,0.13-0.01,0.17-0.03h0.03l0.15-0.01c0.21-0.03,0.49-0.04,0.87-0.04c0.38,0,0.63,0.01,0.86,0.04l0.15,0.01h0.06
					c0.06,0.01,0.15,0.03,0.28,0.03c0.19,0.03,0.39,0.06,0.5,0.07c0,0,0.13,0.05,0.33,0.1c0.23,0.06,0.34,0.07,0.38,0.08l0,0l0,0
					l0.15,0.06l0.19,0.04c0.06,0.01,0.13,0.02,0.23,0.06c0.19,0.06,0.28,0.1,0.32,0.12l0.23,0.11l0.16,0.03
					c0.03,0.01,0.09,0.03,0.18,0.08c0.04,0.01,0.19,0.08,0.34,0.17l0.13,0.08l0.09,0.03c0.03,0.03,0.09,0.05,0.17,0.1
					c0.1,0.05,0.23,0.13,0.42,0.23c0.31,0.2,0.57,0.37,0.74,0.52l0.25,0.2l0.1,0.05c0.16,0.14,0.27,0.24,0.31,0.28
					c0.07,0.08,0.2,0.19,0.28,0.24c0.12,0.13,0.26,0.27,0.39,0.41c0.07,0.08,0.12,0.12,0.15,0.15l0.01,0.02
					c0.08,0.1,0.2,0.25,0.37,0.46c0.09,0.12,0.17,0.23,0.26,0.32c0.03,0.05,0.08,0.1,0.12,0.16l0.01,0.03l0.19,0.28
					c0.59,0.95,1.01,1.94,1.27,3l0.11,0.53c0.11,0.59,0.17,1.17,0.17,1.74C129.09,108.03,124.67,112.46,119.21,112.48z M133.3,98.9
					l-0.32-1.47h-0.17c-0.31-0.81-0.69-1.58-1.13-2.32l-0.03-0.1l-0.2-0.3c-0.13-0.19-0.29-0.46-0.53-0.77l-0.03-0.08l-0.12-0.15
					l-0.03-0.05l-0.03-0.02l-0.07-0.07c-0.08-0.09-0.22-0.28-0.44-0.52c-0.24-0.31-0.38-0.41-0.38-0.42c-0.09-0.1-0.3-0.32-0.5-0.52
					c-0.15-0.15-0.26-0.23-0.3-0.27c-0.01-0.01-0.03-0.02-0.03-0.03c-0.27-0.25-0.41-0.37-0.49-0.44l-0.06-0.06l-0.08-0.07
					c-0.14-0.11-0.28-0.21-0.43-0.29c-0.38-0.3-0.74-0.53-1.04-0.74l-0.1-0.08l-0.13-0.06c-0.03-0.01-0.17-0.1-0.39-0.22
					c-0.09-0.06-0.27-0.16-0.59-0.31c-0.18-0.1-0.38-0.19-0.61-0.3c-0.09-0.04-0.26-0.12-0.57-0.21c-0.27-0.12-0.48-0.2-0.61-0.25
					c-0.22-0.06-0.41-0.12-0.61-0.18c-0.42-0.14-0.7-0.17-0.86-0.21c0.05,0.01-0.12-0.04-0.37-0.1c-0.46-0.1-0.75-0.12-0.97-0.15
					c-0.1-0.01-0.14-0.02-0.14-0.02c-0.07-0.01-0.2-0.03-0.35-0.04c-0.52-0.06-0.97-0.06-1.37-0.06c-0.42,0-0.9,0.01-1.44,0.07
					c-0.3,0.03-0.36,0.06-0.36,0.04c-0.26,0.04-0.57,0.06-0.99,0.16c-0.31,0.07-0.47,0.12-0.47,0.12c-0.1,0.01-0.41,0.06-0.84,0.2
					c-0.14,0.04-0.32,0.09-0.51,0.14c-0.12,0.05-0.33,0.11-0.66,0.26c-0.32,0.09-0.48,0.19-0.55,0.22
					c-0.27,0.11-0.48,0.21-0.65,0.31c-0.34,0.14-0.49,0.25-0.5,0.25l-0.07,0.03l-0.09,0.05c-0.17,0.11-0.32,0.21-0.42,0.26
					c-0.4,0.26-0.78,0.5-1.17,0.81c-0.14,0.08-0.32,0.21-0.52,0.39c-0.06,0.07-0.23,0.2-0.5,0.43l-0.21,0.17l-0.03,0.04
					c-0.03,0.03-0.08,0.07-0.12,0.12c-0.22,0.22-0.39,0.4-0.5,0.53c-0.08,0.07-0.14,0.14-0.17,0.18c-0.06,0.06-0.06,0.07-0.06,0.07
					c-0.29,0.32-0.5,0.57-0.68,0.8c-0.04,0.07-0.08,0.09-0.19,0.27c-0.2,0.27-0.37,0.53-0.53,0.76l0.02-0.02l-0.06,0.07l-0.04,0.07
					c-0.77,1.23-1.36,2.61-1.73,4.08h-5.17V49.85h7.77v21.13c0,0.62,0.24,1.21,0.69,1.64c0.43,0.46,1.02,0.69,1.64,0.69h29.7V98.9
					H133.3z"/>
			</g>
		</g>
	</g>
</g>
</svg>
