<?xml version="1.0" encoding="utf-8"?>
<!-- Generator: Adobe Illustrator 27.9.0, SVG Export Plug-In . SVG Version: 6.00 Build 0)  -->
<svg version="1.1" xmlns="http://www.w3.org/2000/svg" xmlns:xlink="http://www.w3.org/1999/xlink" x="0px" y="0px"
	 viewBox="0 0 150 150" style="enable-background:new 0 0 150 150;" xml:space="preserve">
<style type="text/css">
	.st0{display:none;}
	.st1{display:inline;}
	.st2{fill:none;stroke:#FFFFFF;stroke-width:4.461;stroke-linecap:round;stroke-linejoin:round;stroke-miterlimit:22.9256;}
	.st3{fill:none;stroke:#FFFFFF;stroke-width:4.7797;stroke-linecap:round;stroke-linejoin:round;stroke-miterlimit:22.9256;}
	.st4{fill:none;stroke:#FFFFFF;stroke-width:4.4161;stroke-linecap:round;stroke-linejoin:round;stroke-miterlimit:22.9256;}
	.st5{fill:#990000;}
	.st6{fill:#FFFFFF;}
	.st7{fill:#00843D;}
	.st8{fill:#006296;}
</style>
<g id="white_icons" class="st0">
	<g class="st1">
		<path class="st2" d="M75,127.85H27.67c-3.04,0-5.52-2.48-5.52-5.52V75"/>
		<g>
			<path class="st2" d="M27.67,22.15H75v17.3c0.59,1.91,2.51,3.28,4.78,3.22c4.36-0.11,4.54-5.79,12.33-5.79
				c6.46,0,11.69,5.23,11.69,11.69c0,6.46-5.23,11.69-11.69,11.69c-7.1,0-7.82-5.21-12.33-5.09c-1.66,0.04-3.79,1.44-4.78,2.7V75
				H56.54c-0.75-1.03-1.34-2.29-1.36-3.36c-0.11-4.52,5.09-5.23,5.09-12.33c0-6.46-5.23-11.69-11.69-11.69
				c-6.46,0-11.69,5.23-11.69,11.69c0,7.79,5.67,7.97,5.79,12.33c0.03,1.29-0.4,2.47-1.12,3.36h-19.4V27.67
				C22.15,24.63,24.63,22.15,27.67,22.15L27.67,22.15z"/>
			<path class="st2" d="M122.33,127.85H75v-17.3c-0.59-1.91-2.51-3.28-4.78-3.22c-4.36,0.11-4.54,5.79-12.33,5.79
				c-6.46,0-11.69-5.23-11.69-11.69c0-6.46,5.23-11.69,11.69-11.69c7.1,0,7.82,5.21,12.33,5.09c1.66-0.04,3.79-1.44,4.78-2.7V75
				h18.46c0.75,1.03,1.34,2.29,1.36,3.36c0.11,4.52-5.09,5.23-5.09,12.33c0,6.46,5.23,11.69,11.69,11.69
				c6.46,0,11.69-5.23,11.69-11.69c0-7.79-5.67-7.97-5.79-12.33c-0.03-1.29,0.4-2.47,1.12-3.36h19.4v47.33
				C127.85,125.37,125.37,127.85,122.33,127.85L122.33,127.85z"/>
			<path class="st2" d="M75,22.15h47.33c3.04,0,5.52,2.48,5.52,5.52V75"/>
		</g>
	</g>
</g>
<g id="green_icons">
</g>
<g id="blue_icons">
	<g>
		<g>
			<path class="st8" d="M75,143.64H16.05c-5.34,0-9.68-4.34-9.68-9.68V75c0-1.55,1.25-2.8,2.8-2.8s2.8,1.25,2.8,2.8v58.95
				c0,2.25,1.83,4.08,4.08,4.08H75c1.55,0,2.8,1.26,2.8,2.8C77.8,142.38,76.55,143.64,75,143.64z"/>
		</g>
		<g>
			<g>
				<path class="st8" d="M75,77.8H52c-0.89,0-1.74-0.43-2.26-1.15c-0.81-1.11-2.18-3.33-2.24-5.76c-0.09-3.54,1.68-5.74,3.23-7.67
					c1.67-2.07,3.11-3.86,3.11-7.76c0-6.49-5.28-11.76-11.76-11.76s-11.76,5.28-11.76,11.76c0,4.45,1.66,6.19,3.57,8.19
					c1.66,1.74,3.55,3.71,3.63,7.1c0.06,2.23-0.67,4.37-2.04,6.03c-0.53,0.65-1.33,1.02-2.16,1.02H9.17c-1.55,0-2.8-1.26-2.8-2.8
					V16.05c0-5.34,4.34-9.68,9.68-9.68H75c1.55,0,2.8,1.25,2.8,2.8v21.04c0.49,1.06,1.71,1.76,3.08,1.72
					c1.17-0.03,1.88-0.66,3.36-2.08c2.26-2.16,5.36-5.13,12.06-5.13c9.58,0,17.37,7.79,17.37,17.37s-7.79,17.37-17.37,17.37
					c-5.88,0-9-2.51-11.28-4.35c-1.71-1.37-2.58-2.04-4.01-2c-0.83,0.02-2.25,0.78-3.22,1.66V75C77.8,76.55,76.55,77.8,75,77.8z
					 M53.56,72.2H72.2V53.67c0-0.63,0.21-1.24,0.6-1.73c1.65-2.09,5.04-4.36,8.09-4.43c3.55-0.08,5.74,1.68,7.67,3.23
					c2.07,1.67,3.86,3.11,7.76,3.11c6.49,0,11.76-5.28,11.76-11.76s-5.28-11.76-11.76-11.76c-4.45,0-6.19,1.66-8.19,3.57
					c-1.74,1.66-3.71,3.55-7.1,3.63c-3.98,0.13-7.59-2.37-8.7-5.99c-0.08-0.27-0.12-0.55-0.12-0.83V11.97H16.05
					c-2.25,0-4.08,1.83-4.08,4.08V72.2h19.76c0.14-0.41,0.21-0.85,0.2-1.31c-0.03-1.18-0.66-1.88-2.08-3.37
					c-2.16-2.26-5.13-5.36-5.13-12.06c0-9.58,7.79-17.37,17.37-17.37s17.37,7.79,17.37,17.37c0,5.88-2.51,9-4.35,11.27
					c-1.37,1.71-2.03,2.59-2,4.01C53.11,71.08,53.26,71.59,53.56,72.2z"/>
			</g>
			<g>
				<path class="st8" d="M133.95,143.64H75c-1.55,0-2.8-1.26-2.8-2.8v-21.04c-0.49-1.06-1.71-1.71-3.08-1.72
					c-1.17,0.03-1.88,0.66-3.36,2.08c-2.26,2.16-5.36,5.13-12.06,5.13c-9.58,0-17.37-7.79-17.37-17.37s7.79-17.37,17.37-17.37
					c5.88,0,9,2.51,11.27,4.35c1.7,1.37,2.57,1.98,4.01,2c0.83-0.02,2.25-0.78,3.22-1.66V75c0-1.55,1.25-2.8,2.8-2.8h23
					c0.89,0,1.74,0.43,2.26,1.15c0.81,1.11,2.18,3.33,2.24,5.76c0.09,3.54-1.68,5.74-3.23,7.67c-1.67,2.07-3.11,3.86-3.11,7.76
					c0,6.49,5.28,11.76,11.76,11.76c6.49,0,11.76-5.28,11.76-11.76c0-4.45-1.66-6.19-3.57-8.19c-1.66-1.74-3.55-3.71-3.63-7.1
					c-0.06-2.23,0.67-4.37,2.04-6.03c0.53-0.65,1.33-1.02,2.16-1.02h24.16c1.55,0,2.8,1.25,2.8,2.8v58.95
					C143.64,139.29,139.29,143.64,133.95,143.64z M77.8,138.03h56.15c2.25,0,4.08-1.83,4.08-4.08V77.8h-19.76
					c-0.14,0.41-0.21,0.85-0.2,1.31c0.03,1.18,0.66,1.88,2.08,3.36c2.16,2.26,5.13,5.36,5.13,12.07c0,9.58-7.79,17.37-17.37,17.37
					s-17.37-7.79-17.37-17.37c0-5.88,2.51-9,4.35-11.28c1.37-1.71,2.03-2.59,2-4.02c-0.01-0.32-0.16-0.84-0.46-1.45H77.8v18.53
					c0,0.63-0.21,1.24-0.6,1.73c-1.65,2.09-5.04,4.36-8.09,4.43c-3.56,0.1-5.74-1.68-7.67-3.23c-2.07-1.67-3.86-3.11-7.76-3.11
					c-6.49,0-11.76,5.28-11.76,11.76c0,6.49,5.28,11.76,11.76,11.76c4.45,0,6.19-1.66,8.19-3.57c1.74-1.66,3.71-3.54,7.1-3.63
					c3.98-0.14,7.59,2.36,8.7,5.99c0.08,0.27,0.12,0.55,0.12,0.83V138.03z"/>
			</g>
			<g>
				<path class="st8" d="M140.83,77.8c-1.55,0-2.8-1.26-2.8-2.8V16.05c0-2.25-1.83-4.08-4.08-4.08H75c-1.55,0-2.8-1.25-2.8-2.8
					s1.25-2.8,2.8-2.8h58.95c5.34,0,9.68,4.34,9.68,9.68V75C143.64,76.55,142.38,77.8,140.83,77.8z"/>
			</g>
		</g>
	</g>
</g>
</svg>
