<?xml version="1.0" encoding="utf-8"?>
<!-- Generator: Adobe Illustrator 27.9.0, SVG Export Plug-In . SVG Version: 6.00 Build 0)  -->
<svg version="1.1" xmlns="http://www.w3.org/2000/svg" xmlns:xlink="http://www.w3.org/1999/xlink" x="0px" y="0px"
	 viewBox="0 0 150 150" style="enable-background:new 0 0 150 150;" xml:space="preserve">
<style type="text/css">
	.st0{display:none;}
	.st1{display:inline;}
	.st2{fill:none;stroke:#FFFFFF;stroke-width:4.461;stroke-linecap:round;stroke-linejoin:round;stroke-miterlimit:22.9256;}
	.st3{fill:none;stroke:#FFFFFF;stroke-width:4.7797;stroke-linecap:round;stroke-linejoin:round;stroke-miterlimit:22.9256;}
	.st4{fill:none;stroke:#FFFFFF;stroke-width:4.4161;stroke-linecap:round;stroke-linejoin:round;stroke-miterlimit:22.9256;}
	.st5{fill:#990000;}
	.st6{fill:#FFFFFF;}
	.st7{fill:#00843D;}
	.st8{fill:#006296;}
</style>
<g id="white_icons" class="st0">
</g>
<g id="green_icons">
</g>
<g id="blue_icons">
	<g>
		<g>
			<path class="st8" d="M141.27,119.24l-5.68-3.28v-31l5.69-3.28c1.17-0.68,1.58-2.19,0.9-3.38c-0.68-1.17-2.19-1.58-3.36-0.9
				l-5.76,3.32l-26.44-15.26V35.28l6.83-3.93c1.18-0.68,1.59-2.19,0.9-3.37c-0.68-1.17-2.18-1.58-3.36-0.9l-6.44,3.73L77.73,15.33
				V6.97c0-1.36-1.11-2.47-2.47-2.47c-1.37,0-2.47,1.11-2.47,2.47v8.24L47.41,29.87l-7.14-4.13c-1.18-0.68-2.68-0.27-3.36,0.91
				c-0.68,1.17-0.28,2.68,0.9,3.36l5.92,3.42v32.04L17.21,80.78l-6.02-3.47c-1.18-0.68-2.7-0.27-3.37,0.9
				c-0.68,1.18-0.27,2.7,0.91,3.38l6,3.46v30.62l-6.02,3.47c-1.17,0.68-1.58,2.19-0.9,3.36c0.46,0.8,1.28,1.24,2.14,1.24
				c0.42,0,0.84-0.11,1.23-0.33l6.02-3.47l26.66,15.4v7.7c0,1.37,1.1,2.47,2.47,2.47c1.36,0,2.47-1.1,2.47-2.47v-7.88l26.38-15.22
				l26.65,15.38v7.71c0,1.37,1.11,2.47,2.47,2.47c1.36,0,2.47-1.1,2.47-2.47v-7.87l26.11-15.08l5.94,3.43
				c0.39,0.22,0.82,0.33,1.24,0.33c0.85,0,1.68-0.44,2.14-1.23C142.86,121.43,142.45,119.92,141.27,119.24z M48.65,34.86
				l26.52-15.31l26.51,15.31v30.62L75.17,80.78L48.65,65.47V34.86z M72.7,115.66l-26.52,15.31l-26.52-15.31V85.04l26.52-15.31
				L72.7,85.04V115.66z M130.66,115.66l-26.52,15.31l-26.51-15.31V85.04l26.51-15.31l26.52,15.31V115.66z"/>
		</g>
		<g>
			<path class="st8" d="M46.19,124.88c-0.85,0-1.68-0.44-2.14-1.23c-0.68-1.18-0.28-2.69,0.9-3.37l19.11-11.03
				c1.18-0.68,2.69-0.28,3.37,0.9c0.68,1.18,0.28,2.69-0.9,3.37l-19.11,11.03C47.03,124.78,46.61,124.88,46.19,124.88z"/>
		</g>
		<g>
			<path class="st8" d="M27.08,113.85c-1.36,0-2.47-1.1-2.47-2.47V89.32c0-1.36,1.1-2.47,2.47-2.47c1.36,0,2.47,1.1,2.47,2.47v22.06
				C29.54,112.75,28.44,113.85,27.08,113.85z"/>
		</g>
		<g>
			<path class="st8" d="M65.29,91.79c-0.42,0-0.84-0.11-1.23-0.33L44.95,80.43c-1.18-0.68-1.58-2.19-0.9-3.37
				c0.68-1.18,2.19-1.58,3.37-0.9l19.11,11.03c1.18,0.68,1.58,2.19,0.9,3.37C66.97,91.35,66.14,91.79,65.29,91.79z"/>
		</g>
		<g>
			<path class="st8" d="M104.15,124.88c-0.85,0-1.68-0.44-2.14-1.23c-0.68-1.18-0.28-2.69,0.9-3.37l19.11-11.03
				c1.18-0.68,2.69-0.28,3.37,0.9c0.68,1.18,0.28,2.69-0.9,3.37l-19.11,11.03C104.99,124.78,104.57,124.88,104.15,124.88z"/>
		</g>
		<g>
			<path class="st8" d="M85.04,113.85c-1.36,0-2.47-1.1-2.47-2.47V89.32c0-1.36,1.1-2.47,2.47-2.47s2.47,1.1,2.47,2.47v22.06
				C87.5,112.75,86.4,113.85,85.04,113.85z"/>
		</g>
		<g>
			<path class="st8" d="M123.25,91.79c-0.42,0-0.84-0.11-1.23-0.33l-19.11-11.03c-1.18-0.68-1.58-2.19-0.9-3.37
				c0.68-1.18,2.19-1.58,3.37-0.9l19.11,11.03c1.18,0.68,1.58,2.19,0.9,3.37C124.93,91.35,124.1,91.79,123.25,91.79z"/>
		</g>
		<g>
			<path class="st8" d="M75.17,74.49c-0.85,0-1.68-0.44-2.14-1.23c-0.68-1.18-0.28-2.69,0.9-3.37l19.11-11.03
				c1.18-0.68,2.69-0.28,3.37,0.9c0.68,1.18,0.28,2.69-0.9,3.37L76.4,74.16C76.01,74.38,75.59,74.49,75.17,74.49z"/>
		</g>
		<g>
			<path class="st8" d="M56.06,63.46c-1.36,0-2.47-1.1-2.47-2.47V38.93c0-1.36,1.1-2.47,2.47-2.47s2.47,1.1,2.47,2.47v22.06
				C58.52,62.35,57.42,63.46,56.06,63.46z"/>
		</g>
		<g>
			<path class="st8" d="M94.27,41.39c-0.42,0-0.84-0.11-1.23-0.33L73.93,30.03c-1.18-0.68-1.58-2.19-0.9-3.37
				c0.68-1.18,2.19-1.58,3.37-0.9l19.11,11.03c1.18,0.68,1.58,2.19,0.9,3.37C95.95,40.95,95.12,41.39,94.27,41.39z"/>
		</g>
	</g>
</g>
</svg>
