<?xml version="1.0" encoding="utf-8"?>
<!-- Generator: Adobe Illustrator 27.9.0, SVG Export Plug-In . SVG Version: 6.00 Build 0)  -->
<svg version="1.1" xmlns="http://www.w3.org/2000/svg" xmlns:xlink="http://www.w3.org/1999/xlink" x="0px" y="0px"
	 viewBox="0 0 150 150" style="enable-background:new 0 0 150 150;" xml:space="preserve">
<style type="text/css">
	.st0{display:none;}
	.st1{display:inline;}
	.st2{fill:none;stroke:#FFFFFF;stroke-width:4.461;stroke-linecap:round;stroke-linejoin:round;stroke-miterlimit:22.9256;}
	.st3{fill:none;stroke:#FFFFFF;stroke-width:4.7797;stroke-linecap:round;stroke-linejoin:round;stroke-miterlimit:22.9256;}
	.st4{fill:none;stroke:#FFFFFF;stroke-width:4.4161;stroke-linecap:round;stroke-linejoin:round;stroke-miterlimit:22.9256;}
	.st5{fill:#990000;}
	.st6{fill:#FFFFFF;}
	.st7{fill:#00843D;}
	.st8{fill:#006296;}
</style>
<g id="white_icons" class="st0">
	<g class="st1">
		<path class="st2" d="M124.51,34.33c0,5.9-4.78,10.68-10.68,10.68c-5.9,0-10.68-4.78-10.68-10.68c0-5.9,4.78-10.68,10.68-10.68
			C119.73,23.65,124.51,28.43,124.51,34.33L124.51,34.33z"/>
		<path class="st2" d="M40.07,35.43c0,5.9-4.78,10.68-10.68,10.68c-5.9,0-10.68-4.78-10.68-10.68c0-5.9,4.78-10.68,10.68-10.68
			C35.29,24.75,40.07,29.53,40.07,35.43L40.07,35.43z"/>
		<path class="st2" d="M119.29,87.18c0,5.9-4.78,10.68-10.68,10.68s-10.68-4.78-10.68-10.68c0-5.9,4.78-10.68,10.68-10.68
			S119.29,81.28,119.29,87.18L119.29,87.18z"/>
		<line class="st2" x1="90.33" y1="79.42" x2="98.68" y2="82.97"/>
		<line class="st2" x1="104.76" y1="40.88" x2="87.01" y2="53.69"/>
		<line class="st2" x1="45.75" y1="50.52" x2="37.53" y2="42.94"/>
		<path class="st2" d="M40.45,104.54c-1.97,5.56-8.07,8.47-13.63,6.51c-5.56-1.97-8.47-8.07-6.51-13.63
			c1.97-5.56,8.07-8.47,13.63-6.51C39.5,92.88,42.41,98.98,40.45,104.54L40.45,104.54z"/>
		<line class="st2" x1="38.41" y1="93.74" x2="50.01" y2="83.27"/>
		<line class="st2" x1="70.69" y1="89.72" x2="75.82" y2="111.39"/>
		<path class="st2" d="M85.09,120.59c-1.02,4.07-5.14,6.55-9.21,5.53c-4.07-1.02-6.55-5.14-5.53-9.21c1.02-4.07,5.14-6.55,9.21-5.53
			C83.63,112.4,86.11,116.52,85.09,120.59L85.09,120.59z"/>
		<path class="st2" d="M73.95,39.22c0,6.17-4.27,10.47-9.53,10.47c-5.26,0-9.53-4.3-9.53-10.47C54.89,27.17,73.95,27.54,73.95,39.22
			L73.95,39.22z"/>
		<path class="st2" d="M84.01,76.69H44.83V65.76c0-5.29,4.34-9.64,9.64-9.64h19.91c5.3,0,9.64,4.34,9.64,9.64V76.69L84.01,76.69z"/>
		<line class="st2" x1="74.29" y1="76.69" x2="74.29" y2="65.16"/>
		<line class="st2" x1="54.55" y1="65.16" x2="54.55" y2="76.69"/>
	</g>
</g>
<g id="green_icons">
</g>
<g id="blue_icons">
	<g>
		<g>
			<path class="st8" d="M128.77,39.66c-9.08,0-16.47-7.39-16.47-16.47s7.39-16.47,16.47-16.47c9.08,0,16.47,7.39,16.47,16.47
				S137.85,39.66,128.77,39.66z M128.77,12.46c-5.92,0-10.73,4.82-10.73,10.73s4.82,10.73,10.73,10.73
				c5.92,0,10.73-4.82,10.73-10.73S134.69,12.46,128.77,12.46z"/>
		</g>
		<g>
			<path class="st8" d="M21.23,41.06c-9.08,0-16.47-7.39-16.47-16.47S12.15,8.13,21.23,8.13s16.47,7.39,16.47,16.47
				S30.31,41.06,21.23,41.06z M21.23,13.86c-5.92,0-10.73,4.82-10.73,10.73c0,5.92,4.82,10.73,10.73,10.73s10.73-4.82,10.73-10.73
				C31.96,18.68,27.15,13.86,21.23,13.86z"/>
		</g>
		<g>
			<path class="st8" d="M122.13,106.98c-9.08,0-16.47-7.39-16.47-16.47s7.39-16.47,16.47-16.47s16.47,7.39,16.47,16.47
				S131.21,106.98,122.13,106.98z M122.13,79.78c-5.92,0-10.73,4.82-10.73,10.73c0,5.92,4.82,10.73,10.73,10.73
				c5.92,0,10.73-4.82,10.73-10.73C132.86,84.59,128.05,79.78,122.13,79.78z"/>
		</g>
		<g>
			<path class="st8" d="M109.48,88.01c-0.37,0-0.75-0.07-1.12-0.23l-10.63-4.51c-1.46-0.62-2.14-2.3-1.52-3.76
				c0.62-1.46,2.3-2.14,3.76-1.52l10.63,4.51c1.46,0.62,2.14,2.3,1.52,3.76C111.66,87.36,110.6,88.01,109.48,88.01z"/>
		</g>
		<g>
			<path class="st8" d="M94.62,50.73c-0.89,0-1.77-0.41-2.33-1.19c-0.93-1.28-0.64-3.07,0.65-4l22.6-16.32
				c1.28-0.93,3.08-0.64,4,0.65c0.93,1.28,0.64,3.07-0.65,4l-22.6,16.32C95.79,50.55,95.2,50.73,94.62,50.73z"/>
		</g>
		<g>
			<path class="st8" d="M42.06,46.69c-0.7,0-1.39-0.25-1.94-0.76l-10.47-9.66c-1.16-1.07-1.24-2.89-0.16-4.05
				c1.07-1.16,2.89-1.24,4.05-0.16l10.47,9.66c1.16,1.07,1.24,2.89,0.16,4.05C43.61,46.38,42.84,46.69,42.06,46.69z"/>
		</g>
		<g>
			<path class="st8" d="M22.5,124.56c-1.85,0-3.71-0.32-5.5-0.95c-4.15-1.47-7.47-4.46-9.37-8.43c-1.9-3.97-2.13-8.44-0.67-12.58
				c1.47-4.15,4.46-7.47,8.43-9.37c3.97-1.89,8.44-2.13,12.58-0.67c8.56,3.03,13.06,12.45,10.04,21.01l0,0
				c-1.47,4.15-4.46,7.47-8.43,9.37C27.33,124.02,24.92,124.56,22.5,124.56z M22.48,97.35c-1.58,0-3.15,0.35-4.62,1.05
				c-2.59,1.24-4.54,3.4-5.49,6.11c-0.96,2.7-0.8,5.62,0.43,8.2s3.4,4.54,6.11,5.49c2.7,0.95,5.62,0.8,8.2-0.43
				c2.59-1.24,4.54-3.4,5.49-6.11h0c1.97-5.58-0.96-11.73-6.54-13.7C24.89,97.56,23.68,97.35,22.48,97.35z"/>
		</g>
		<g>
			<path class="st8" d="M32.71,101.73c-0.78,0-1.56-0.32-2.13-0.95c-1.06-1.17-0.97-2.99,0.21-4.05L45.56,83.4
				c1.17-1.06,2.99-0.97,4.05,0.21c1.06,1.17,0.97,2.99-0.21,4.05l-14.77,13.33C34.08,101.49,33.39,101.73,32.71,101.73z"/>
		</g>
		<g>
			<path class="st8" d="M80.36,124.22c-1.3,0-2.47-0.89-2.79-2.21l-6.53-27.6c-0.36-1.54,0.59-3.08,2.13-3.45
				c1.54-0.37,3.08,0.59,3.45,2.13l6.53,27.6c0.36,1.54-0.59,3.08-2.13,3.45C80.8,124.19,80.58,124.22,80.36,124.22z"/>
		</g>
		<g>
			<path class="st8" d="M82.78,143.27c-1,0-2.02-0.12-3.04-0.37c-6.71-1.68-10.81-8.5-9.13-15.21c0.81-3.25,2.84-5.99,5.71-7.72
				c2.87-1.73,6.24-2.23,9.5-1.42c6.71,1.67,10.81,8.5,9.13,15.21l0,0C93.53,139.46,88.4,143.27,82.78,143.27z M82.77,123.91
				c-1.22,0-2.42,0.33-3.49,0.97c-1.56,0.94-2.66,2.42-3.1,4.19c-0.91,3.64,1.32,7.35,4.96,8.26c3.65,0.91,7.35-1.32,8.26-4.96
				c0.91-3.64-1.32-7.35-4.96-8.26C83.88,123.98,83.32,123.91,82.77,123.91z M92.17,133.07h0.01H92.17z"/>
		</g>
		<g>
			<path class="st8" d="M65.84,45.62c-8.55,0-15-6.96-15-16.2c0-4.4,1.65-8.11,4.77-10.72c2.68-2.24,6.27-3.48,10.1-3.48
				c7.53,0,15.15,4.88,15.15,14.2C80.85,38.66,74.4,45.62,65.84,45.62z M65.7,20.96c-2.45,0-4.79,0.78-6.42,2.14
				c-1.8,1.51-2.71,3.64-2.71,6.32c0,6.06,3.9,10.47,9.27,10.47s9.27-4.4,9.27-10.47C75.12,23.61,70.24,20.96,65.7,20.96z"/>
		</g>
		<g>
			<path class="st8" d="M90.8,80.01H40.89c-1.58,0-2.87-1.28-2.87-2.87V63.23c0-8.35,6.79-15.14,15.14-15.14h25.36
				c8.35,0,15.14,6.79,15.14,15.14v13.92C93.66,78.73,92.38,80.01,90.8,80.01z M43.75,74.28h44.18V63.23c0-5.19-4.22-9.41-9.41-9.41
				H53.16c-5.19,0-9.41,4.22-9.41,9.41V74.28z"/>
		</g>
		<g>
			<path class="st8" d="M78.42,80.01c-1.58,0-2.87-1.28-2.87-2.87V62.47c0-1.58,1.28-2.87,2.87-2.87s2.87,1.28,2.87,2.87v14.68
				C81.28,78.73,80,80.01,78.42,80.01z"/>
		</g>
		<g>
			<path class="st8" d="M53.27,80.01c-1.58,0-2.87-1.28-2.87-2.87V62.47c0-1.58,1.28-2.87,2.87-2.87s2.87,1.28,2.87,2.87v14.68
				C56.13,78.73,54.85,80.01,53.27,80.01z"/>
		</g>
	</g>
</g>
</svg>
