<?xml version="1.0" encoding="utf-8"?>
<!-- Generator: Adobe Illustrator 27.9.0, SVG Export Plug-In . SVG Version: 6.00 Build 0)  -->
<svg version="1.1" xmlns="http://www.w3.org/2000/svg" xmlns:xlink="http://www.w3.org/1999/xlink" x="0px" y="0px"
	 viewBox="0 0 150 150" style="enable-background:new 0 0 150 150;" xml:space="preserve">
<style type="text/css">
	.st0{display:none;}
	.st1{display:inline;}
	.st2{fill:none;stroke:#FFFFFF;stroke-width:4.461;stroke-linecap:round;stroke-linejoin:round;stroke-miterlimit:22.9256;}
	.st3{fill:none;stroke:#FFFFFF;stroke-width:4.7797;stroke-linecap:round;stroke-linejoin:round;stroke-miterlimit:22.9256;}
	.st4{fill:none;stroke:#FFFFFF;stroke-width:4.4161;stroke-linecap:round;stroke-linejoin:round;stroke-miterlimit:22.9256;}
	.st5{fill:#990000;}
	.st6{fill:#FFFFFF;}
	.st7{fill:#00843D;}
	.st8{fill:#006296;}
</style>
<g id="white_icons" class="st0">
	<g class="st1">
		<path class="st2" d="M32.06,25.83h18.3v68.31c0,5.03-4.12,9.15-9.15,9.15l0,0c-5.03,0-9.15-4.12-9.15-9.15V25.83L32.06,25.83z"/>
		<line class="st2" x1="29.86" y1="25.84" x2="52.55" y2="25.84"/>
		<line class="st2" x1="34.73" y1="76.01" x2="47.68" y2="76.01"/>
		<path class="st2" d="M62.46,25.83h18.3v68.31c0,5.03-4.12,9.15-9.15,9.15l0,0c-5.03,0-9.15-4.12-9.15-9.15V25.83L62.46,25.83z"/>
		<line class="st2" x1="60.27" y1="25.84" x2="82.96" y2="25.84"/>
		<line class="st2" x1="65.14" y1="67.93" x2="78.09" y2="67.93"/>
		<path class="st2" d="M92.87,25.83h18.3v68.31c0,5.03-4.12,9.15-9.15,9.15l0,0c-5.03,0-9.15-4.12-9.15-9.15V25.83L92.87,25.83z"/>
		<line class="st2" x1="90.67" y1="25.84" x2="113.36" y2="25.84"/>
		<line class="st2" x1="95.54" y1="77.81" x2="108.49" y2="77.81"/>
		<polygon class="st2" points="20.36,57.07 122.87,57.07 122.87,124.17 20.36,124.17 20.36,57.07 		"/>
	</g>
</g>
<g id="green_icons">
</g>
<g id="blue_icons">
	<g>
		<g>
			<path class="st8" d="M47.73,9.04H24.26c-0.1,0-0.21,0-0.3,0.01h24.05C47.92,9.04,47.83,9.04,47.73,9.04z"/>
		</g>
		<g>
			<rect x="27.15" y="14.81" class="st8" width="17.69" height="0.01"/>
		</g>
		<g>
			<path class="st8" d="M86.74,9.04H63.26c-0.1,0-0.19,0-0.3,0.01h24.07C86.93,9.04,86.84,9.04,86.74,9.04z"/>
		</g>
		<g>
			<rect x="66.15" y="14.81" class="st8" width="17.7" height="0.01"/>
		</g>
		<g>
			<path class="st8" d="M125.74,9.04h-23.46c-0.1,0-0.19,0-0.3,0.01h24.05C125.94,9.04,125.84,9.04,125.74,9.04z"/>
			<path class="st8" d="M140.75,49.11h-12.12V14.82c1.57-0.04,2.82-1.32,2.82-2.89c0-1.6-1.3-2.89-2.89-2.89H99.45
				c-1.59,0-2.89,1.28-2.89,2.89c0,1.57,1.26,2.85,2.82,2.89v34.29h-9.76V14.82c1.55-0.04,2.81-1.32,2.81-2.89
				c0-1.6-1.3-2.89-2.89-2.89h-29.1c-1.6,0-2.89,1.28-2.89,2.89c0,1.57,1.24,2.85,2.81,2.89v34.29h-9.76V14.82
				c1.57-0.04,2.82-1.32,2.82-2.89c0-1.6-1.3-2.89-2.89-2.89H21.44c-1.59,0-2.89,1.28-2.89,2.89c0,1.57,1.26,2.85,2.82,2.89v34.29
				H9.25c-1.6,0-2.89,1.3-2.89,2.89v86.08c0,1.59,1.28,2.89,2.89,2.89h131.49c1.6,0,2.89-1.3,2.89-2.89V52
				C143.63,50.41,142.35,49.11,140.75,49.11z M105.16,14.81h17.69v34.3h-17.69V14.81z M105.16,54.88h17.69v20.88
				c-0.17-0.04-0.36-0.05-0.54-0.05H105.7c-0.18,0-0.37,0.01-0.54,0.05V54.88z M105.16,81.44c0.17,0.04,0.36,0.05,0.54,0.05h16.61
				c0.18,0,0.37-0.01,0.54-0.05v18.11c0,4.89-3.96,8.85-8.84,8.85c-4.89,0-8.85-3.96-8.85-8.85V81.44z M66.15,14.81h17.7v34.3h-17.7
				V14.81z M66.15,54.88h17.7v8.21c-0.18-0.04-0.36-0.05-0.55-0.05H66.7c-0.19,0-0.37,0.01-0.55,0.05V54.88z M66.15,68.77
				c0.18,0.04,0.36,0.05,0.55,0.05h16.6c0.19,0,0.37-0.01,0.55-0.05v30.79c0,4.89-3.98,8.85-8.85,8.85s-8.85-3.96-8.85-8.85V68.77z
				 M27.15,14.81h17.69v34.3H27.15V14.81z M27.15,54.88h17.69v18.56c-0.17-0.04-0.36-0.05-0.54-0.05H27.69
				c-0.18,0-0.37,0.01-0.54,0.05V54.88z M27.15,79.12c0.17,0.04,0.36,0.05,0.54,0.05H44.3c0.18,0,0.37-0.01,0.54-0.05v20.44
				c0,4.89-3.96,8.85-8.85,8.85c-4.87,0-8.84-3.96-8.84-8.85V79.12z M137.86,135.19H12.14V54.88h9.24v44.67
				c0,8.07,6.56,14.62,14.61,14.62c8.07,0,14.62-6.56,14.62-14.62V54.88h9.76v44.67c0,8.07,6.57,14.62,14.62,14.62
				s14.62-6.56,14.62-14.62V54.88h9.76v44.67c0,8.07,6.56,14.62,14.62,14.62c8.06,0,14.61-6.56,14.61-14.62V54.88h9.24V135.19z"/>
		</g>
		<g>
			<rect x="105.16" y="14.81" class="st8" width="17.69" height="0.01"/>
		</g>
	</g>
</g>
</svg>
