<?xml version="1.0" encoding="utf-8"?>
<!-- Generator: Adobe Illustrator 27.9.0, SVG Export Plug-In . SVG Version: 6.00 Build 0)  -->
<svg version="1.1" xmlns="http://www.w3.org/2000/svg" xmlns:xlink="http://www.w3.org/1999/xlink" x="0px" y="0px"
	 viewBox="0 0 150 150" style="enable-background:new 0 0 150 150;" xml:space="preserve">
<style type="text/css">
	.st0{display:none;}
	.st1{display:inline;}
	.st2{fill:none;stroke:#FFFFFF;stroke-width:4.461;stroke-linecap:round;stroke-linejoin:round;stroke-miterlimit:22.9256;}
	.st3{fill:none;stroke:#FFFFFF;stroke-width:4.7797;stroke-linecap:round;stroke-linejoin:round;stroke-miterlimit:22.9256;}
	.st4{fill:none;stroke:#FFFFFF;stroke-width:4.4161;stroke-linecap:round;stroke-linejoin:round;stroke-miterlimit:22.9256;}
	.st5{fill:#990000;}
	.st6{fill:#FFFFFF;}
	.st7{fill:#00843D;}
	.st8{fill:#006296;}
</style>
<g id="white_icons" class="st0">
</g>
<g id="green_icons">
</g>
<g id="blue_icons">
	<g>
		<g>
			<path class="st8" d="M119.05,54.73l22.32-14.32L93.41,12.29l-1.59,1.51L75.11,29.56L56.8,12.29l-1.88,1.1L8.6,40.39l22.33,14.34
				L3.74,68.33l28.88,16.08l0.23,30.1l42.14,23.2l42.15-23.2l0.24-30.26l28.89-15.89L119.05,54.73z M94.24,19.52l35.99,21.11
				l-17.16,11.02L79.99,32.96L94.24,19.52z M106.87,54.86L75.12,70.23l-32-15.37l31.98-17.95L106.87,54.86z M19.78,40.63l36.2-21.11
				l14.25,13.44L36.91,51.65L19.78,40.63z M16.22,68.61L36.63,58.4l0.09,0.05l0.19-0.11L68.47,73.5L45.44,84.88L16.22,68.61z
				 M38.48,87.67l6.8,3.79l1.38-0.67l25.56-12.62l-0.01,51.36l-33.55-18.47L38.48,87.67z M111.34,111.05l-33.31,18.33l0.01-51.26
				l26.91,12.96l1.32-0.73l5.24-2.88L111.34,111.05z M104.77,84.53L81.83,73.47l31.22-15.13l0.19,0.12l0.09-0.06l20.39,10.19
				L104.77,84.53z"/>
		</g>
	</g>
</g>
</svg>
