<?xml version="1.0" encoding="utf-8"?>
<!-- Generator: Adobe Illustrator 27.9.0, SVG Export Plug-In . SVG Version: 6.00 Build 0)  -->
<svg version="1.1" xmlns="http://www.w3.org/2000/svg" xmlns:xlink="http://www.w3.org/1999/xlink" x="0px" y="0px"
	 viewBox="0 0 150 150" style="enable-background:new 0 0 150 150;" xml:space="preserve">
<style type="text/css">
	.st0{display:none;}
	.st1{display:inline;}
	.st2{fill:none;stroke:#FFFFFF;stroke-width:4.461;stroke-linecap:round;stroke-linejoin:round;stroke-miterlimit:22.9256;}
	.st3{fill:none;stroke:#FFFFFF;stroke-width:4.7797;stroke-linecap:round;stroke-linejoin:round;stroke-miterlimit:22.9256;}
	.st4{fill:none;stroke:#FFFFFF;stroke-width:4.4161;stroke-linecap:round;stroke-linejoin:round;stroke-miterlimit:22.9256;}
	.st5{fill:#990000;}
	.st6{fill:#FFFFFF;}
	.st7{fill:#00843D;}
	.st8{fill:#006296;}
</style>
<g id="white_icons" class="st0">
	<g class="st1">
		<path class="st2" d="M103.79,56.29c13.35,18.29,11.77,44.09-4.74,60.6c-18.26,18.26-47.88,18.26-66.14,0
			c-18.26-18.26-18.26-47.88,0-66.14c16.52-16.52,42.31-18.1,60.6-4.74"/>
		<path class="st2" d="M94.55,65.53c8.42,13.13,6.9,30.79-4.59,42.28c-13.25,13.25-34.72,13.25-47.97,0
			c-13.25-13.25-13.25-34.72,0-47.97c11.48-11.48,29.15-13.01,42.28-4.59"/>
		<path class="st2" d="M85.1,74.97c3.6,7.79,2.19,17.33-4.23,23.75c-8.23,8.23-21.57,8.23-29.8,0c-8.23-8.23-8.23-21.57,0-29.8
			c6.42-6.42,15.96-7.83,23.75-4.23"/>
		<path class="st2" d="M73.83,86.24c-0.38,1.24-1.06,2.41-2.04,3.39c-3.21,3.21-8.42,3.21-11.63,0c-3.21-3.21-3.21-8.42,0-11.63
			c0.98-0.98,2.15-1.66,3.39-2.05"/>
		<line class="st2" x1="66.59" y1="83.4" x2="125.01" y2="24.98"/>
		<polyline class="st2" points="105.19,47.14 117.01,50.86 130.79,37.08 118.97,33.36 		"/>
		<polyline class="st2" points="103.06,45.01 99.34,33.19 113.12,19.41 116.84,31.23 		"/>
	</g>
</g>
<g id="green_icons">
</g>
<g id="blue_icons">
	<g>
		<g>
			<path class="st8" d="M64.32,143.37c-14.84,0-29.68-5.65-40.98-16.95c-22.6-22.6-22.6-59.36,0-81.96
				c20.33-20.33,51.92-22.8,75.1-5.87c1.19,0.87,1.45,2.53,0.58,3.72c-0.87,1.19-2.53,1.45-3.72,0.58
				c-21.06-15.37-49.74-13.13-68.2,5.34c-20.52,20.52-20.52,53.92,0,74.44c20.52,20.52,53.92,20.52,74.44,0
				c18.47-18.47,20.71-47.15,5.34-68.2c-0.87-1.19-0.61-2.85,0.58-3.72c1.19-0.87,2.85-0.61,3.72,0.58
				c16.93,23.19,14.46,54.77-5.87,75.1C94,137.72,79.16,143.37,64.32,143.37z"/>
		</g>
		<g>
			<path class="st8" d="M64.32,128.19c-10.95,0-21.9-4.17-30.24-12.51c-16.67-16.67-16.67-43.8,0-60.48
				c14.11-14.11,36.53-16.54,53.3-5.78c1.24,0.79,1.6,2.44,0.8,3.68c-0.79,1.24-2.44,1.6-3.68,0.8
				c-14.69-9.42-34.31-7.29-46.67,5.06c-14.6,14.6-14.6,38.36,0,52.95c14.6,14.6,38.36,14.6,52.96,0
				c12.36-12.36,14.49-31.98,5.06-46.67c-0.79-1.24-0.43-2.88,0.8-3.68c1.24-0.79,2.88-0.44,3.68,0.8
				c10.76,16.77,8.33,39.19-5.78,53.3C86.22,124.02,75.27,128.19,64.32,128.19z"/>
		</g>
		<g>
			<path class="st8" d="M64.32,113c-7.06,0-14.12-2.69-19.5-8.06c-10.75-10.75-10.75-28.24,0-38.99
				c8.14-8.14,20.63-10.37,31.08-5.53c1.33,0.62,1.91,2.2,1.3,3.53c-0.62,1.33-2.2,1.92-3.53,1.3c-8.43-3.9-18.51-2.1-25.08,4.47
				c-8.67,8.68-8.67,22.79,0,31.47c8.68,8.67,22.79,8.67,31.47,0c6.57-6.57,8.37-16.65,4.47-25.08c-0.62-1.33-0.04-2.91,1.3-3.53
				c1.33-0.62,2.91-0.04,3.53,1.3c4.83,10.45,2.61,22.94-5.53,31.08C78.44,110.31,71.38,113,64.32,113z"/>
		</g>
		<g>
			<path class="st8" d="M64.32,97.82c-3.17,0-6.34-1.21-8.75-3.62c-2.34-2.34-3.63-5.45-3.63-8.76s1.29-6.42,3.63-8.75
				c1.42-1.43,3.19-2.49,5.11-3.08c1.4-0.43,2.89,0.36,3.32,1.76c0.43,1.4-0.36,2.89-1.76,3.32c-1.11,0.34-2.09,0.93-2.91,1.76
				c-1.33,1.33-2.07,3.11-2.07,4.99s0.74,3.66,2.07,4.99c2.75,2.75,7.23,2.75,9.99,0c0.83-0.83,1.42-1.81,1.76-2.91
				c0.43-1.41,1.92-2.19,3.32-1.76c1.41,0.43,2.19,1.92,1.76,3.32c-0.59,1.92-1.65,3.69-3.08,5.12
				C70.66,96.61,67.49,97.82,64.32,97.82z"/>
		</g>
		<g>
			<path class="st8" d="M65.04,87.61c-0.68,0-1.36-0.26-1.88-0.78c-1.04-1.04-1.04-2.72,0-3.76l69.08-69.08
				c1.04-1.04,2.72-1.04,3.76,0c1.04,1.04,1.04,2.72,0,3.76L66.92,86.83C66.4,87.35,65.72,87.61,65.04,87.61z"/>
		</g>
		<g>
			<path class="st8" d="M124.66,49.13c-0.27,0-0.54-0.04-0.8-0.12l-13.98-4.39c-1.4-0.44-2.18-1.93-1.74-3.34
				c0.44-1.4,1.94-2.18,3.34-1.74l12.44,3.91l12.05-12.05l-9.79-3.08c-1.4-0.44-2.18-1.93-1.74-3.34c0.44-1.4,1.94-2.18,3.34-1.74
				l13.98,4.39c0.89,0.28,1.56,1,1.79,1.9c0.22,0.9-0.05,1.86-0.7,2.51l-16.29,16.29C126.03,48.86,125.35,49.13,124.66,49.13z"/>
		</g>
		<g>
			<path class="st8" d="M108.16,42.22c-1.13,0-2.18-0.73-2.54-1.86l-4.39-13.98c-0.3-0.95-0.04-1.98,0.66-2.68l16.29-16.29
				c0.66-0.66,1.61-0.93,2.51-0.7c0.9,0.22,1.62,0.9,1.9,1.79l4.39,13.98c0.44,1.4-0.34,2.9-1.74,3.34c-1.4,0.44-2.9-0.34-3.34-1.74
				l-3.08-9.79l-12.05,12.05l3.91,12.44c0.44,1.4-0.34,2.9-1.74,3.34C108.69,42.18,108.43,42.22,108.16,42.22z"/>
		</g>
	</g>
</g>
</svg>
