<?xml version="1.0" encoding="utf-8"?>
<!-- Generator: Adobe Illustrator 27.9.0, SVG Export Plug-In . SVG Version: 6.00 Build 0)  -->
<svg version="1.1" xmlns="http://www.w3.org/2000/svg" xmlns:xlink="http://www.w3.org/1999/xlink" x="0px" y="0px"
	 viewBox="0 0 150 150" style="enable-background:new 0 0 150 150;" xml:space="preserve">
<style type="text/css">
	.st0{display:none;}
	.st1{display:inline;}
	.st2{fill:none;stroke:#FFFFFF;stroke-width:4.461;stroke-linecap:round;stroke-linejoin:round;stroke-miterlimit:22.9256;}
	.st3{fill:none;stroke:#FFFFFF;stroke-width:4.7797;stroke-linecap:round;stroke-linejoin:round;stroke-miterlimit:22.9256;}
	.st4{fill:none;stroke:#FFFFFF;stroke-width:4.4161;stroke-linecap:round;stroke-linejoin:round;stroke-miterlimit:22.9256;}
	.st5{fill:#990000;}
	.st6{fill:#FFFFFF;}
	.st7{fill:#00843D;}
	.st8{fill:#006296;}
</style>
<g id="white_icons" class="st0">
</g>
<g id="green_icons">
</g>
<g id="blue_icons">
	<g>
		<g>
			<path class="st8" d="M100.46,26.83C98.91,14.13,87.87,4.29,75,4.29s-23.92,9.83-25.46,22.54H26.82v118.88h96.36V26.83H100.46z
				 M44.32,33.06h11.26v-3.11c0-10.71,8.71-19.41,19.41-19.41c10.71,0,19.41,8.71,19.41,19.41v3.11h11.26v16.31H44.32V33.06z
				 M116.95,139.48h-83.9V33.06h5.03v22.54h73.84V33.06h5.03V139.48z"/>
		</g>
		<g>
			<rect x="51.6" y="71.89" class="st8" width="46.8" height="6.24"/>
		</g>
		<g>
			<rect x="51.6" y="94.42" class="st8" width="46.8" height="6.23"/>
		</g>
		<g>
			<rect x="51.6" y="116.94" class="st8" width="46.8" height="6.23"/>
		</g>
		<g>
			<path class="st8" d="M75,15.56c-7.93,0-14.38,6.45-14.38,14.38v3.11h28.76v-3.11C89.38,22.01,82.93,15.56,75,15.56z M75,21.79
				c3.33,0,6.29,2.02,7.52,5.03H67.47C68.71,23.81,71.67,21.79,75,21.79z"/>
		</g>
	</g>
</g>
</svg>
