<?xml version="1.0" encoding="utf-8"?>
<!-- Generator: Adobe Illustrator 27.9.0, SVG Export Plug-In . SVG Version: 6.00 Build 0)  -->
<svg version="1.1" xmlns="http://www.w3.org/2000/svg" xmlns:xlink="http://www.w3.org/1999/xlink" x="0px" y="0px"
	 viewBox="0 0 150 150" style="enable-background:new 0 0 150 150;" xml:space="preserve">
<style type="text/css">
	.st0{display:none;}
	.st1{display:inline;}
	.st2{fill:none;stroke:#FFFFFF;stroke-width:4.461;stroke-linecap:round;stroke-linejoin:round;stroke-miterlimit:22.9256;}
	.st3{fill:none;stroke:#FFFFFF;stroke-width:4.7797;stroke-linecap:round;stroke-linejoin:round;stroke-miterlimit:22.9256;}
	.st4{fill:none;stroke:#FFFFFF;stroke-width:4.4161;stroke-linecap:round;stroke-linejoin:round;stroke-miterlimit:22.9256;}
	.st5{fill:#990000;}
	.st6{fill:#FFFFFF;}
	.st7{fill:#00843D;}
	.st8{fill:#006296;}
</style>
<g id="white_icons" class="st0">
</g>
<g id="green_icons">
</g>
<g id="blue_icons">
	<g>
		<g>
			<g>
				<path class="st8" d="M108.34,141.91c-16.99-0.04-38.74-9.98-64.69-35.75l0,0C17.75,80.38,7.74,58.76,7.69,41.85l0,0
					c-0.02-10.16,3.76-18.51,9.7-24.4l0,0c2.8-2.64,8.8-7.51,13.4-8.92l0,0l1.61-0.45l33.97,33.77l-1.72,2.04
					C59.6,49.83,54,57.73,54.06,66.35l0,0c0.02,5.81,2.35,12.31,9.76,19.73l0,0c7.46,7.37,14.01,9.7,19.89,9.72l0,0
					c8.69,0.05,16.64-5.52,22.62-10.53l0,0l2.02-1.69l33.97,33.76l-0.46,1.62c-1.42,4.61-6.33,10.54-9,13.33l0,0
					c-5.91,5.87-14.28,9.6-24.44,9.6l0,0C108.39,141.91,108.37,141.91,108.34,141.91L108.34,141.91z M21.47,21.55
					c-4.89,4.86-7.98,11.54-7.99,20.3l0,0c-0.05,14.52,8.9,35.03,34.25,60.22l0,0c25.34,25.22,45.98,34.1,60.62,34.07l0,0
					c8.81-0.02,15.54-3.1,20.45-7.94l0,0c1.65-1.52,5.4-6.45,6.9-9.29l0,0l-27.7-27.53c-6.08,4.82-14.27,10.16-24.27,10.2l0,0
					c-7.54,0.02-15.78-3.23-23.96-11.4l0,0c-8.22-8.14-11.49-16.33-11.47-23.82l0,0c0.05-9.96,5.43-18.1,10.27-24.12l0,0
					l-27.7-27.53C27.98,16.17,23.01,19.9,21.47,21.55L21.47,21.55z M106.14,89.54l2.03-2.04L106.14,89.54L106.14,89.54z"/>
			</g>
		</g>
	</g>
</g>
</svg>
