<?xml version="1.0" encoding="utf-8"?>
<!-- Generator: Adobe Illustrator 27.9.0, SVG Export Plug-In . SVG Version: 6.00 Build 0)  -->
<svg version="1.1" xmlns="http://www.w3.org/2000/svg" xmlns:xlink="http://www.w3.org/1999/xlink" x="0px" y="0px"
	 viewBox="0 0 150 150" style="enable-background:new 0 0 150 150;" xml:space="preserve">
<style type="text/css">
	.st0{display:none;}
	.st1{display:inline;}
	.st2{fill:none;stroke:#FFFFFF;stroke-width:4.461;stroke-linecap:round;stroke-linejoin:round;stroke-miterlimit:22.9256;}
	.st3{fill:none;stroke:#FFFFFF;stroke-width:4.7797;stroke-linecap:round;stroke-linejoin:round;stroke-miterlimit:22.9256;}
	.st4{fill:none;stroke:#FFFFFF;stroke-width:4.4161;stroke-linecap:round;stroke-linejoin:round;stroke-miterlimit:22.9256;}
	.st5{fill:#990000;}
	.st6{fill:#FFFFFF;}
	.st7{fill:#00843D;}
	.st8{fill:#006296;}
</style>
<g id="white_icons" class="st0">
	<g class="st1">
		<path class="st2" d="M64.24,101.46c-3.43-1.41-6.64-3.51-9.41-6.3c-2.77-2.79-4.85-6.02-6.23-9.46
			c-1.38-3.44-2.06-7.09-2.05-10.74c0.01-3.65,0.72-7.3,2.13-10.72c1.41-3.43,3.51-6.64,6.3-9.41c2.79-2.77,6.02-4.85,9.46-6.23
			c3.44-1.38,7.09-2.06,10.74-2.05c3.65,0.01,7.3,0.72,10.72,2.13c3.43,1.41,6.64,3.51,9.41,6.3c2.77,2.79,4.85,6.02,6.23,9.46"/>
		<path class="st2" d="M89.5,113.89c-0.4,0.15-0.81,0.29-1.22,0.43c-0.82,0.27-1.64,0.52-2.47,0.75l-1.22,12.86
			c-3.11,0.56-6.32,0.85-9.59,0.85c-3.42,0-6.77-0.32-10.01-0.93l-1.12-12.87c-3.3-0.92-6.51-2.25-9.55-4l-9.95,8.23
			c-5.41-3.76-10.1-8.48-13.81-13.92l8.31-9.89c-1.73-3.05-3.03-6.27-3.92-9.58l-12.86-1.22c-0.56-3.11-0.85-6.32-0.85-9.59
			c0-3.42,0.32-6.77,0.93-10.01l12.87-1.12c0.92-3.3,2.25-6.51,4-9.55l-8.22-9.95c3.76-5.41,8.48-10.1,13.92-13.81l9.89,8.3
			c3.05-1.73,6.27-3.04,9.58-3.93l1.22-12.86c3.11-0.56,6.32-0.85,9.59-0.85c3.42,0,6.77,0.32,10.01,0.93l1.12,12.86
			c3.3,0.92,6.52,2.25,9.55,4l9.95-8.22c5.41,3.76,10.1,8.48,13.81,13.92l-8.3,9.88c1.73,3.05,3.04,6.27,3.93,9.59l12.85,1.22
			c0.56,3.11,0.85,6.32,0.85,9.6c0,3.42-0.32,6.77-0.93,10.01l-12.86,1.12c-0.23,0.83-0.48,1.65-0.77,2.46
			c-0.13,0.38-0.27,0.76-0.41,1.14"/>
		<path class="st2" d="M96.41,85.98l25.69,25.69c2.86,2.86,2.87,7.56,0,10.43l0,0c-2.87,2.87-7.56,2.87-10.43,0L85.98,96.41
			c-6.77,2.72-14.81,1.34-20.3-4.15c-5.73-5.73-6.99-14.25-3.76-21.2L74.86,84l6.74-2.4l2.4-6.74L71.05,61.91
			c6.95-3.22,15.47-1.97,21.2,3.76C97.74,71.17,99.13,79.2,96.41,85.98L96.41,85.98z"/>
	</g>
</g>
<g id="green_icons">
</g>
<g id="blue_icons">
	<g>
		<g>
			<path class="st8" d="M61.71,110.45c-0.35,0-0.71-0.07-1.05-0.21c-4.71-1.93-8.93-4.75-12.54-8.39c-3.61-3.64-6.4-7.88-8.3-12.6
				c-1.83-4.56-2.75-9.37-2.73-14.3c0.02-4.93,0.97-9.74,2.84-14.28c1.93-4.7,4.75-8.92,8.39-12.54c3.64-3.61,7.88-6.4,12.6-8.3
				c4.56-1.83,9.36-2.7,14.3-2.73c4.93,0.02,9.74,0.97,14.28,2.84c4.71,1.93,8.92,4.75,12.54,8.39c3.61,3.64,6.4,7.88,8.3,12.6
				c0.57,1.42-0.12,3.04-1.54,3.61c-1.43,0.57-3.04-0.12-3.61-1.54c-1.61-4.03-4-7.64-7.08-10.75c-3.09-3.11-6.69-5.52-10.7-7.17
				c-3.88-1.59-7.98-2.41-12.2-2.42c-4.28-0.01-8.32,0.77-12.22,2.33c-4.03,1.62-7.65,4-10.75,7.08c-3.11,3.09-5.52,6.69-7.17,10.7
				c-1.59,3.88-2.41,7.98-2.42,12.2c-0.02,4.21,0.77,8.32,2.33,12.22c1.62,4.03,4,7.65,7.08,10.75c3.08,3.11,6.68,5.52,10.7,7.17
				c1.42,0.58,2.1,2.2,1.52,3.62C63.84,109.8,62.8,110.45,61.71,110.45z"/>
		</g>
		<g>
			<path class="st8" d="M75,144.18c-4.31,0-8.64-0.4-12.88-1.2c-1.22-0.23-2.15-1.25-2.25-2.49l-1.22-14.01
				c-3.06-0.97-6.03-2.21-8.87-3.72l-10.83,8.95c-0.96,0.79-2.33,0.85-3.35,0.14c-6.99-4.85-12.97-10.87-17.76-17.9
				c-0.7-1.03-0.63-2.4,0.17-3.35l9.04-10.77c-1.48-2.85-2.7-5.83-3.65-8.9l-14-1.33c-1.24-0.12-2.25-1.05-2.47-2.27
				c-0.73-4.05-1.1-8.2-1.1-12.34c0-4.31,0.4-8.64,1.2-12.88c0.23-1.22,1.25-2.15,2.49-2.25l14.01-1.22
				c0.97-3.06,2.21-6.03,3.72-8.88l-8.95-10.83c-0.79-0.96-0.85-2.33-0.14-3.35c4.85-6.99,10.88-12.97,17.9-17.76
				c1.03-0.7,2.4-0.63,3.35,0.17l10.76,9.04c2.85-1.48,5.84-2.7,8.91-3.65l1.33-13.99c0.12-1.24,1.05-2.25,2.27-2.47
				c8.27-1.49,16.92-1.46,25.22,0.1c1.22,0.23,2.15,1.25,2.25,2.49l1.22,14c3.06,0.97,6.04,2.22,8.88,3.72l10.83-8.94
				c0.96-0.79,2.33-0.85,3.35-0.14c6.99,4.85,12.97,10.87,17.76,17.9c0.7,1.03,0.63,2.4-0.17,3.35l-9.03,10.76
				c1.48,2.85,2.7,5.84,3.65,8.91l13.99,1.33c1.24,0.12,2.25,1.05,2.47,2.27c0.73,4.05,1.1,8.2,1.1,12.34c0,4.31-0.4,8.64-1.2,12.87
				c-0.23,1.22-1.25,2.15-2.49,2.25l-14,1.22c-0.14,0.45-0.29,0.9-0.44,1.34c-0.17,0.49-0.35,0.99-0.53,1.48
				c-0.54,1.43-2.15,2.16-3.58,1.62c-1.44-0.54-2.16-2.15-1.62-3.58c0.17-0.44,0.33-0.88,0.48-1.33c0.33-0.94,0.63-1.9,0.89-2.87
				c0.31-1.12,1.28-1.92,2.44-2.03l13.75-1.2c0.5-3.23,0.75-6.51,0.75-9.78c0-3.11-0.23-6.22-0.67-9.29l-13.74-1.3
				c-1.15-0.11-2.12-0.92-2.42-2.04c-1.05-3.91-2.59-7.67-4.58-11.19c-0.57-1.01-0.46-2.27,0.29-3.15l8.87-10.56
				c-3.78-5.17-8.29-9.71-13.43-13.53l-10.63,8.78c-0.89,0.74-2.15,0.84-3.16,0.27C95.65,30.95,91.9,29.38,88,28.3
				c-1.12-0.31-1.92-1.28-2.03-2.44l-1.2-13.75c-6.31-0.97-12.78-1-19.06-0.08l-1.31,13.74c-0.11,1.15-0.92,2.12-2.04,2.42
				c-3.9,1.05-7.67,2.59-11.19,4.58c-1.01,0.57-2.27,0.45-3.15-0.29l-10.57-8.87c-5.17,3.78-9.71,8.29-13.53,13.43l8.79,10.64
				c0.74,0.89,0.84,2.15,0.27,3.15c-2.02,3.51-3.59,7.26-4.67,11.15c-0.31,1.12-1.28,1.92-2.44,2.03l-13.75,1.2
				c-0.5,3.23-0.75,6.51-0.75,9.78c0,3.11,0.23,6.22,0.67,9.28l13.75,1.31c1.15,0.11,2.12,0.92,2.42,2.04
				c1.05,3.9,2.59,7.67,4.58,11.18c0.57,1.01,0.46,2.27-0.29,3.15l-8.88,10.57c3.78,5.17,8.29,9.71,13.43,13.53l10.64-8.79
				c0.89-0.74,2.15-0.85,3.15-0.27c3.51,2.02,7.26,3.59,11.15,4.67c1.12,0.31,1.92,1.28,2.02,2.44l1.2,13.75
				c6.31,0.97,12.78,1,19.06,0.08l1.31-13.74c0.11-1.15,0.92-2.12,2.04-2.42c0.96-0.26,1.93-0.55,2.88-0.87
				c0.48-0.16,0.95-0.33,1.42-0.5c1.44-0.54,3.04,0.2,3.57,1.64c0.53,1.44-0.2,3.04-1.64,3.57c-0.53,0.2-1.06,0.38-1.59,0.56
				c-0.44,0.15-0.89,0.29-1.34,0.43l-1.33,14c-0.12,1.24-1.05,2.25-2.27,2.47C83.29,143.81,79.14,144.18,75,144.18z"/>
		</g>
		<g>
			<path class="st8" d="M126.72,138.58c-3.18,0-6.17-1.23-8.4-3.47l-30.48-30.48c-9.23,2.96-19.38,0.56-26.31-6.37
				c-7.68-7.68-9.77-19.46-5.2-29.31c0.38-0.82,1.14-1.41,2.04-1.57c0.89-0.16,1.81,0.13,2.45,0.77L75.55,82.9l5.42-1.93l1.93-5.42
				L68.16,60.8c-0.64-0.64-0.93-1.56-0.77-2.45c0.16-0.89,0.74-1.65,1.57-2.03c9.85-4.57,21.63-2.48,29.31,5.2
				c6.93,6.93,9.34,17.08,6.37,26.31l30.48,30.48c4.63,4.63,4.63,12.17,0,16.8C132.88,137.35,129.9,138.58,126.72,138.58z
				 M88.55,98.65c0.72,0,1.43,0.28,1.96,0.81l31.72,31.72c1.19,1.19,2.78,1.84,4.47,1.84c1.7,0,3.29-0.65,4.47-1.84
				c2.47-2.47,2.47-6.48,0-8.95L99.47,90.51c-0.79-0.79-1.03-1.97-0.61-3c3.05-7.61,1.28-16.27-4.51-22.07
				c-5.05-5.04-12.34-7.02-19.12-5.44l12.85,12.85c0.76,0.76,1.01,1.89,0.65,2.9l-2.96,8.32c-0.28,0.79-0.9,1.4-1.69,1.69
				l-8.32,2.96c-1.01,0.36-2.14,0.11-2.9-0.65L60.01,75.22c-1.58,6.78,0.4,14.07,5.44,19.12c5.8,5.8,14.46,7.57,22.07,4.51
				C87.86,98.71,88.21,98.65,88.55,98.65z"/>
		</g>
	</g>
</g>
</svg>
