<?xml version="1.0" encoding="utf-8"?>
<!-- Generator: Adobe Illustrator 27.9.0, SVG Export Plug-In . SVG Version: 6.00 Build 0)  -->
<svg version="1.1" xmlns="http://www.w3.org/2000/svg" xmlns:xlink="http://www.w3.org/1999/xlink" x="0px" y="0px"
	 viewBox="0 0 150 150" style="enable-background:new 0 0 150 150;" xml:space="preserve">
<style type="text/css">
	.st0{display:none;}
	.st1{display:inline;}
	.st2{fill:none;stroke:#FFFFFF;stroke-width:4.461;stroke-linecap:round;stroke-linejoin:round;stroke-miterlimit:22.9256;}
	.st3{fill:none;stroke:#FFFFFF;stroke-width:4.7797;stroke-linecap:round;stroke-linejoin:round;stroke-miterlimit:22.9256;}
	.st4{fill:none;stroke:#FFFFFF;stroke-width:4.4161;stroke-linecap:round;stroke-linejoin:round;stroke-miterlimit:22.9256;}
	.st5{fill:#990000;}
	.st6{fill:#FFFFFF;}
	.st7{fill:#00843D;}
	.st8{fill:#006296;}
</style>
<g id="white_icons" class="st0">
	<g class="st1">
		<path class="st2" d="M24.87,27.57h20.44c1.85,0,3.37,1.52,3.37,3.37v90.33c0,1.85-1.52,3.37-3.37,3.37H24.87
			c-1.85,0-3.37-1.52-3.37-3.37V30.94C21.5,29.09,23.01,27.57,24.87,27.57L24.87,27.57z M41.5,47.71H28.67 M28.67,38.82H41.5
			 M41.5,111.29H28.67 M28.67,102.4H41.5 M52.45,27.57h20.44c1.85,0,3.37,1.52,3.37,3.37v90.33c0,1.85-1.52,3.37-3.37,3.37H52.45
			c-1.85,0-3.37-1.52-3.37-3.37V30.94C49.08,29.09,50.6,27.57,52.45,27.57L52.45,27.57z M69.09,47.71H56.26 M56.26,38.82h12.83
			 M69.09,111.29H56.26 M56.26,102.4h12.83 M81.14,30.76l19.74-5.29c1.79-0.48,3.65,0.59,4.13,2.38l23.38,87.26
			c0.48,1.79-0.59,3.65-2.38,4.13l-19.74,5.29c-1.79,0.48-3.65-0.59-4.13-2.38L78.75,34.89C78.27,33.1,79.35,31.24,81.14,30.76
			L81.14,30.76z M102.42,45.91l-12.39,3.32 M87.72,40.64l12.39-3.32 M118.87,107.33l-12.39,3.32 M104.18,102.06l12.39-3.32"/>
	</g>
</g>
<g id="green_icons">
</g>
<g id="blue_icons">
	<g>
		<g>
			<path class="st8" d="M113.08,140.03c-1.22,0-2.43-0.32-3.52-0.95c-1.63-0.94-2.8-2.46-3.28-4.27L79.4,34.49v98.49
				c0,3.88-3.16,7.04-7.04,7.04H46.74c-1.7,0-3.26-0.6-4.47-1.61c-1.22,1-2.78,1.61-4.47,1.61H12.18c-3.88,0-7.04-3.16-7.04-7.04
				V19.79c0-3.88,3.16-7.04,7.04-7.04h25.61c1.7,0,3.26,0.6,4.47,1.61c1.22-1,2.78-1.61,4.47-1.61h25.61c3.36,0,6.18,2.37,6.88,5.52
				c0.78-0.66,1.71-1.15,2.73-1.42l24.74-6.63c1.81-0.49,3.71-0.23,5.34,0.71c1.63,0.94,2.8,2.46,3.28,4.27l29.3,109.34
				c0.49,1.81,0.23,3.71-0.71,5.34c-0.94,1.63-2.46,2.8-4.27,3.28l-24.74,6.63C114.3,139.95,113.68,140.03,113.08,140.03z
				 M108.51,15.61c-0.11,0-0.23,0.01-0.36,0.05l-24.74,6.63l0,0c-0.48,0.13-0.74,0.47-0.85,0.65s-0.27,0.58-0.14,1.06l29.3,109.34
				c0.13,0.48,0.47,0.74,0.66,0.85c0.19,0.11,0.58,0.27,1.06,0.15l24.74-6.63c0.48-0.13,0.74-0.47,0.85-0.66
				c0.11-0.19,0.27-0.58,0.15-1.06l-29.3-109.34c-0.13-0.48-0.47-0.74-0.66-0.85C109.08,15.73,108.83,15.61,108.51,15.61z
				 M46.74,18.39c-0.76,0-1.4,0.64-1.4,1.4v113.19c0,0.76,0.64,1.4,1.4,1.4h25.61c0.76,0,1.4-0.64,1.4-1.4V19.79
				c0-0.76-0.64-1.4-1.4-1.4H46.74z M12.18,18.39c-0.76,0-1.4,0.64-1.4,1.4v113.19c0,0.76,0.64,1.4,1.4,1.4h25.61
				c0.76,0,1.4-0.64,1.4-1.4V19.79c0-0.76-0.64-1.4-1.4-1.4H12.18z M82.69,19.57h0.01H82.69z M67.59,123.29H51.51
				c-1.56,0-2.82-1.26-2.82-2.82c0-1.56,1.26-2.82,2.82-2.82h16.08c1.56,0,2.82,1.26,2.82,2.82
				C70.41,122.03,69.14,123.29,67.59,123.29z M33.02,123.29H16.95c-1.56,0-2.82-1.26-2.82-2.82c0-1.56,1.26-2.82,2.82-2.82h16.08
				c1.56,0,2.82,1.26,2.82,2.82C35.84,122.03,34.58,123.29,33.02,123.29z M114.45,122.49c-1.25,0-2.38-0.83-2.72-2.09
				c-0.4-1.5,0.49-3.05,1.99-3.45l15.53-4.16c1.51-0.41,3.05,0.49,3.45,1.99c0.4,1.5-0.49,3.05-1.99,3.45l-15.53,4.16
				C114.93,122.46,114.69,122.49,114.45,122.49z M67.59,112.16H51.51c-1.56,0-2.82-1.26-2.82-2.82c0-1.56,1.26-2.82,2.82-2.82h16.08
				c1.56,0,2.82,1.26,2.82,2.82C70.41,110.9,69.14,112.16,67.59,112.16z M33.02,112.16H16.95c-1.56,0-2.82-1.26-2.82-2.82
				c0-1.56,1.26-2.82,2.82-2.82h16.08c1.56,0,2.82,1.26,2.82,2.82C35.84,110.9,34.58,112.16,33.02,112.16z M111.56,111.73
				c-1.25,0-2.38-0.83-2.72-2.09c-0.4-1.5,0.49-3.05,1.99-3.45l15.53-4.16c1.51-0.4,3.05,0.49,3.45,1.99
				c0.4,1.5-0.49,3.05-1.99,3.45l-15.53,4.16C112.05,111.7,111.81,111.73,111.56,111.73z M93.82,45.53c-1.25,0-2.38-0.83-2.72-2.09
				c-0.4-1.5,0.49-3.05,1.99-3.45l15.53-4.16c1.51-0.41,3.05,0.49,3.45,1.99c0.4,1.5-0.49,3.05-1.99,3.45l-15.53,4.16
				C94.31,45.49,94.07,45.53,93.82,45.53z M67.59,43.62H51.51c-1.56,0-2.82-1.26-2.82-2.82s1.26-2.82,2.82-2.82h16.08
				c1.56,0,2.82,1.26,2.82,2.82S69.14,43.62,67.59,43.62z M33.02,43.62H16.95c-1.56,0-2.82-1.26-2.82-2.82s1.26-2.82,2.82-2.82
				h16.08c1.56,0,2.82,1.26,2.82,2.82S34.58,43.62,33.02,43.62z M90.94,34.77c-1.25,0-2.38-0.83-2.72-2.09
				c-0.4-1.5,0.49-3.05,1.99-3.45l15.53-4.16c1.51-0.41,3.05,0.49,3.45,1.99c0.4,1.5-0.49,3.05-1.99,3.45l-15.53,4.16
				C91.43,34.74,91.18,34.77,90.94,34.77z M67.59,32.48H51.51c-1.56,0-2.82-1.26-2.82-2.82c0-1.56,1.26-2.82,2.82-2.82h16.08
				c1.56,0,2.82,1.26,2.82,2.82C70.41,31.22,69.14,32.48,67.59,32.48z M33.02,32.48H16.95c-1.56,0-2.82-1.26-2.82-2.82
				c0-1.56,1.26-2.82,2.82-2.82h16.08c1.56,0,2.82,1.26,2.82,2.82C35.84,31.22,34.58,32.48,33.02,32.48z"/>
		</g>
	</g>
</g>
</svg>
