<?xml version="1.0" encoding="utf-8"?>
<!-- Generator: Adobe Illustrator 27.9.0, SVG Export Plug-In . SVG Version: 6.00 Build 0)  -->
<svg version="1.1" xmlns="http://www.w3.org/2000/svg" xmlns:xlink="http://www.w3.org/1999/xlink" x="0px" y="0px"
	 viewBox="0 0 150 150" style="enable-background:new 0 0 150 150;" xml:space="preserve">
<style type="text/css">
	.st0{display:none;}
	.st1{display:inline;}
	.st2{fill:none;stroke:#FFFFFF;stroke-width:4.461;stroke-linecap:round;stroke-linejoin:round;stroke-miterlimit:22.9256;}
	.st3{fill:none;stroke:#FFFFFF;stroke-width:4.7797;stroke-linecap:round;stroke-linejoin:round;stroke-miterlimit:22.9256;}
	.st4{fill:none;stroke:#FFFFFF;stroke-width:4.4161;stroke-linecap:round;stroke-linejoin:round;stroke-miterlimit:22.9256;}
	.st5{fill:#990000;}
	.st6{fill:#FFFFFF;}
	.st7{fill:#00843D;}
	.st8{fill:#006296;}
</style>
<g id="white_icons" class="st0">
	<g class="st1">
		<polygon class="st2" points="133.21,118.13 123.69,127.65 99.24,103.21 108.92,93.84 133.21,118.13 		"/>
		<path class="st2" d="M75.15,29.12c22.37,0,40.51,18.14,40.51,40.51c0,22.37-18.14,40.51-40.51,40.51S34.65,92,34.65,69.63
			C34.65,47.26,52.78,29.12,75.15,29.12L75.15,29.12z"/>
		<path class="st2" d="M74.74,37.08c18.15,0,32.86,14.71,32.86,32.86"/>
		<path class="st2" d="M65.03,58.45c0,6.17,4.27,10.47,9.53,10.47c5.26,0,9.53-4.3,9.53-10.47C84.09,46.4,65.03,46.77,65.03,58.45
			L65.03,58.45z"/>
		<path class="st2" d="M54.97,95.92V84.99c0-5.3,4.34-9.64,9.64-9.64h19.91c5.3,0,9.64,4.35,9.64,9.64v10.93"/>
		<line class="st2" x1="64.69" y1="100.67" x2="64.69" y2="86.13"/>
		<line class="st2" x1="84.44" y1="86.13" x2="84.44" y2="100.67"/>
		<path class="st2" d="M115.74,68.91c5.26,0,9.53-4.3,9.53-10.47c0-7.81-8.02-10.4-13.66-8.07"/>
		<path class="st2" d="M115.97,75.35h9.73c5.3,0,9.64,4.35,9.64,9.64v10.93"/>
		<line class="st2" x1="125.61" y1="84.39" x2="125.61" y2="96.31"/>
		<path class="st2" d="M38.32,50.27c-5.63-2.19-13.59,0.63-13.59,8.17c0,6.17,4.27,10.47,9.53,10.47"/>
		<path class="st2" d="M14.67,95.92V84.99c0-5.3,4.34-9.64,9.64-9.64h9.72"/>
		<line class="st2" x1="24.39" y1="96.31" x2="24.39" y2="84.39"/>
	</g>
</g>
<g id="green_icons">
</g>
<g id="blue_icons">
	<g>
		<g>
			<path class="st8" d="M128.48,131.59c-0.63,0-1.26-0.24-1.75-0.72l-26.85-26.85c-0.47-0.47-0.73-1.1-0.72-1.77
				c0.01-0.66,0.28-1.29,0.75-1.75l10.63-10.29c0.97-0.94,2.51-0.93,3.47,0.03l26.68,26.68c0.97,0.97,0.97,2.53,0,3.49l-10.46,10.46
				C129.75,131.35,129.12,131.59,128.48,131.59z M105.15,102.29l23.33,23.33l6.96-6.96l-23.22-23.22L105.15,102.29z"/>
		</g>
		<g>
			<path class="st8" d="M75.17,112.34c-25.9,0-46.97-21.07-46.97-46.97c0-25.9,21.07-46.97,46.97-46.97
				c25.9,0,46.96,21.07,46.96,46.97C122.13,91.27,101.06,112.34,75.17,112.34z M75.17,23.36c-23.17,0-42.02,18.85-42.02,42.02
				c0,23.17,18.85,42.02,42.02,42.02s42.02-18.85,42.02-42.02C117.19,42.21,98.34,23.36,75.17,23.36z"/>
		</g>
		<g>
			<path class="st8" d="M110.81,68.2c-1.36,0-2.47-1.11-2.47-2.47c0-18.54-15.08-33.63-33.63-33.63c-1.36,0-2.47-1.11-2.47-2.47
				s1.11-2.47,2.47-2.47c21.27,0,38.57,17.3,38.57,38.57C113.28,67.09,112.18,68.2,110.81,68.2z"/>
		</g>
		<g>
			<path class="st8" d="M74.52,67.06c-7.38,0-12.94-6-12.94-13.97c0-8.04,6.57-12.24,13.06-12.24c3.3,0,6.4,1.07,8.71,3
				c2.69,2.25,4.11,5.45,4.11,9.24C87.46,61.06,81.9,67.06,74.52,67.06z M74.64,45.8c-2.16,0-4.24,0.69-5.7,1.9
				c-1.6,1.32-2.42,3.13-2.42,5.4c0,5.23,3.36,9.03,8,9.03c4.63,0,8-3.8,8-9.03C82.52,48.05,78.56,45.8,74.64,45.8z"/>
		</g>
		<g>
			<path class="st8" d="M96.04,96.72c-1.36,0-2.47-1.11-2.47-2.47v-12c0-4.47-3.64-8.11-8.11-8.11H63.58
				c-4.47,0-8.11,3.64-8.11,8.11v12c0,1.36-1.11,2.47-2.47,2.47c-1.36,0-2.47-1.11-2.47-2.47v-12c0-7.2,5.86-13.06,13.06-13.06
				h21.87c7.2,0,13.06,5.86,13.06,13.06v12C98.51,95.62,97.41,96.72,96.04,96.72z"/>
		</g>
		<g>
			<path class="st8" d="M63.68,101.94c-1.36,0-2.47-1.11-2.47-2.47V83.5c0-1.36,1.11-2.47,2.47-2.47s2.47,1.11,2.47,2.47v15.97
				C66.15,100.84,65.04,101.94,63.68,101.94z"/>
		</g>
		<g>
			<path class="st8" d="M85.37,101.94c-1.36,0-2.47-1.11-2.47-2.47V83.5c0-1.36,1.11-2.47,2.47-2.47c1.36,0,2.47,1.11,2.47,2.47
				v15.97C87.84,100.84,86.73,101.94,85.37,101.94z"/>
		</g>
		<g>
			<path class="st8" d="M119.75,67.06c-1.36,0-2.47-1.11-2.47-2.47c0-1.37,1.11-2.47,2.47-2.47c4.63,0,8-3.8,8-9.03
				c0-2.57-1.02-4.61-2.94-5.9c-2.35-1.57-5.83-1.85-8.65-0.68c-1.26,0.52-2.71-0.08-3.23-1.34s0.08-2.71,1.34-3.23
				c4.34-1.8,9.56-1.35,13.28,1.14c3.31,2.21,5.13,5.77,5.13,10.01C132.69,61.06,127.13,67.06,119.75,67.06z"/>
		</g>
		<g>
			<path class="st8" d="M141.27,96.72c-1.36,0-2.47-1.11-2.47-2.47v-12c0-4.47-3.64-8.11-8.11-8.11H120c-1.36,0-2.47-1.11-2.47-2.47
				s1.11-2.47,2.47-2.47h10.68c7.2,0,13.06,5.86,13.06,13.06v12C143.74,95.62,142.64,96.72,141.27,96.72z"/>
		</g>
		<g>
			<path class="st8" d="M130.59,97.16c-1.36,0-2.47-1.11-2.47-2.47V81.59c0-1.36,1.11-2.47,2.47-2.47s2.47,1.11,2.47,2.47v13.09
				C133.07,96.05,131.96,97.16,130.59,97.16z"/>
		</g>
		<g>
			<path class="st8" d="M30.25,67.06c-7.38,0-12.94-6-12.94-13.97c0-4.12,1.81-7.63,5.08-9.87c3.71-2.54,8.9-3.09,13.21-1.41
				c1.27,0.5,1.9,1.93,1.41,3.2c-0.5,1.27-1.93,1.9-3.2,1.41c-2.79-1.09-6.26-0.73-8.63,0.89c-1.34,0.91-2.93,2.66-2.93,5.79
				c0,5.23,3.36,9.03,8,9.03c1.36,0,2.47,1.11,2.47,2.47C32.72,65.96,31.61,67.06,30.25,67.06z"/>
		</g>
		<g>
			<path class="st8" d="M8.73,96.72c-1.36,0-2.47-1.11-2.47-2.47v-12c0-7.2,5.86-13.06,13.06-13.06h10.68
				c1.36,0,2.47,1.11,2.47,2.47s-1.11,2.47-2.47,2.47H19.31c-4.47,0-8.11,3.64-8.11,8.11v12C11.2,95.62,10.09,96.72,8.73,96.72z"/>
		</g>
		<g>
			<path class="st8" d="M19.41,97.16c-1.36,0-2.47-1.11-2.47-2.47V81.59c0-1.36,1.11-2.47,2.47-2.47c1.36,0,2.47,1.11,2.47,2.47
				v13.09C21.88,96.05,20.77,97.16,19.41,97.16z"/>
		</g>
	</g>
</g>
</svg>
