<?xml version="1.0" encoding="utf-8"?>
<!-- Generator: Adobe Illustrator 27.9.0, SVG Export Plug-In . SVG Version: 6.00 Build 0)  -->
<svg version="1.1" xmlns="http://www.w3.org/2000/svg" xmlns:xlink="http://www.w3.org/1999/xlink" x="0px" y="0px"
	 viewBox="0 0 150 150" style="enable-background:new 0 0 150 150;" xml:space="preserve">
<style type="text/css">
	.st0{display:none;}
	.st1{display:inline;}
	.st2{fill:none;stroke:#FFFFFF;stroke-width:4.461;stroke-linecap:round;stroke-linejoin:round;stroke-miterlimit:22.9256;}
	.st3{fill:none;stroke:#FFFFFF;stroke-width:4.7797;stroke-linecap:round;stroke-linejoin:round;stroke-miterlimit:22.9256;}
	.st4{fill:none;stroke:#FFFFFF;stroke-width:4.4161;stroke-linecap:round;stroke-linejoin:round;stroke-miterlimit:22.9256;}
	.st5{fill:#990000;}
	.st6{fill:#FFFFFF;}
	.st7{fill:#00843D;}
	.st8{fill:#006296;}
</style>
<g id="white_icons" class="st0">
</g>
<g id="green_icons">
</g>
<g id="blue_icons">
	<g>
		<g>
			<path class="st8" d="M104.34,132.13l-67.5-67.52c-2.98-2.98-4.49-6.91-4.48-10.82l0,0c-0.01-3.91,1.5-7.83,4.47-10.81l0,0
				c2.99-2.99,6.92-4.49,10.82-4.48l0,0c3.91-0.01,7.84,1.5,10.82,4.47l0,0l56.03,56.07l-4.61,4.61L53.85,47.59
				c-1.72-1.72-3.96-2.57-6.21-2.57l0,0c-2.25,0-4.48,0.85-6.2,2.57l0,0c-1.72,1.72-2.57,3.95-2.57,6.2l0,0
				c0,2.26,0.85,4.48,2.57,6.21l0,0l67.51,67.52c3.26,3.27,7.52,4.89,11.8,4.89l0,0c4.28-0.01,8.54-1.62,11.81-4.89l0,0
				c3.27-3.27,4.89-7.52,4.89-11.81l0,0c-0.01-4.29-1.62-8.55-4.89-11.82l0,0L53.3,24.59c-4.67-4.67-10.77-7-16.89-7l0,0
				c-6.12,0-12.2,2.32-16.87,7l0,0c-4.67,4.67-7,10.78-7,16.89l0,0c0,6.13,2.32,12.22,7,16.89l0,0l67.8,67.83l-4.61,4.62
				l-67.8-67.84c-5.94-5.94-8.91-13.73-8.91-21.5l0,0c0-7.76,2.97-15.57,8.91-21.5l0,0c5.91-5.93,13.7-8.92,21.48-8.92l0,0
				c7.77,0,15.58,2.99,21.5,8.92l0,0l79.27,79.3c4.54,4.52,6.81,10.48,6.8,16.42l0,0c0.01,5.93-2.27,11.89-6.8,16.42l0,0
				c-4.53,4.53-10.48,6.8-16.42,6.8l0,0C114.84,138.93,108.87,136.65,104.34,132.13L104.34,132.13z"/>
		</g>
	</g>
</g>
</svg>
