<?xml version="1.0" encoding="utf-8"?>
<!-- Generator: Adobe Illustrator 27.9.0, SVG Export Plug-In . SVG Version: 6.00 Build 0)  -->
<svg version="1.1" xmlns="http://www.w3.org/2000/svg" xmlns:xlink="http://www.w3.org/1999/xlink" x="0px" y="0px"
	 viewBox="0 0 150 150" style="enable-background:new 0 0 150 150;" xml:space="preserve">
<style type="text/css">
	.st0{display:none;}
	.st1{display:inline;}
	.st2{fill:none;stroke:#FFFFFF;stroke-width:4.461;stroke-linecap:round;stroke-linejoin:round;stroke-miterlimit:22.9256;}
	.st3{fill:none;stroke:#FFFFFF;stroke-width:4.7797;stroke-linecap:round;stroke-linejoin:round;stroke-miterlimit:22.9256;}
	.st4{fill:none;stroke:#FFFFFF;stroke-width:4.4161;stroke-linecap:round;stroke-linejoin:round;stroke-miterlimit:22.9256;}
	.st5{fill:#990000;}
	.st6{fill:#FFFFFF;}
	.st7{fill:#00843D;}
	.st8{fill:#006296;}
</style>
<g id="white_icons" class="st0">
</g>
<g id="green_icons">
</g>
<g id="blue_icons">
	<g>
		<g>
			<path class="st6" d="M135.41,115.83H14.59c-5.34,0-9.68-4.34-9.68-9.68V23.01c0-5.34,4.34-9.68,9.68-9.68h120.83
				c5.34,0,9.68,4.34,9.68,9.68v83.14C145.1,111.49,140.75,115.83,135.41,115.83z M14.59,18.75c-2.35,0-4.26,1.91-4.26,4.26v83.14
				c0,2.35,1.91,4.26,4.26,4.26h120.83c2.35,0,4.26-1.91,4.26-4.26V23.01c0-2.35-1.91-4.26-4.26-4.26H14.59z"/>
		</g>
		<g>
			<path class="st6" d="M132.59,106.26H17.41c-1.5,0-2.71-1.21-2.71-2.71V25.61c0-1.5,1.21-2.71,2.71-2.71h115.19
				c1.5,0,2.71,1.21,2.71,2.71v77.94C135.3,105.05,134.09,106.26,132.59,106.26z M20.12,100.84h109.76V28.32H20.12V100.84z"/>
		</g>
		<g>
			<path class="st6" d="M66.91,90.38c-2.99,0-5.43-2.43-5.43-5.43c0-2.99,2.44-5.43,5.43-5.43c2.99,0,5.43,2.44,5.43,5.43
				C72.34,87.94,69.91,90.38,66.91,90.38z"/>
		</g>
		<g>
			<circle class="st6" cx="84.23" cy="84.95" r="5.43"/>
		</g>
		<g>
			<path class="st6" d="M90.84,75.23H62.47c-1.19,0-2.24-0.78-2.59-1.92l-7.89-25.78h-7.14c-1.5,0-2.71-1.21-2.71-2.71
				c0-1.5,1.21-2.71,2.71-2.71H54c1.19,0,2.24,0.78,2.59,1.92l7.89,25.78h26.37c1.5,0,2.71,1.21,2.71,2.71S92.34,75.23,90.84,75.23z
				"/>
		</g>
		<g>
			<path class="st6" d="M93.82,66.79H60.87c-1.5,0-2.71-1.21-2.71-2.71c0-1.5,1.21-2.71,2.71-2.71h32.95c1.5,0,2.71,1.21,2.71,2.71
				C96.53,65.58,95.32,66.79,93.82,66.79z"/>
		</g>
		<g>
			<path class="st6" d="M95.69,58.35H58.68c-1.5,0-2.71-1.21-2.71-2.71c0-1.5,1.21-2.71,2.71-2.71h37.01c1.5,0,2.71,1.21,2.71,2.71
				C98.41,57.13,97.19,58.35,95.69,58.35z"/>
		</g>
		<g>
			<path class="st6" d="M87.3,135.61c-1.5,0-2.71-1.21-2.71-2.71v-18.81c0-1.5,1.21-2.71,2.71-2.71c1.5,0,2.71,1.21,2.71,2.71v18.81
				C90.01,134.39,88.8,135.61,87.3,135.61z"/>
		</g>
		<g>
			<path class="st6" d="M62.7,135.61c-1.5,0-2.71-1.21-2.71-2.71v-18.81c0-1.5,1.21-2.71,2.71-2.71s2.71,1.21,2.71,2.71v18.81
				C65.41,134.39,64.2,135.61,62.7,135.61z"/>
		</g>
		<g>
			<path class="st6" d="M109.95,136.67h-69.9c-1.5,0-2.71-1.21-2.71-2.71c0-1.5,1.21-2.71,2.71-2.71h69.9c1.5,0,2.71,1.21,2.71,2.71
				C112.66,135.46,111.45,136.67,109.95,136.67z"/>
		</g>
	</g>
</g>
</svg>
