<?xml version="1.0" encoding="utf-8"?>
<!-- Generator: Adobe Illustrator 27.9.0, SVG Export Plug-In . SVG Version: 6.00 Build 0)  -->
<svg version="1.1" xmlns="http://www.w3.org/2000/svg" xmlns:xlink="http://www.w3.org/1999/xlink" x="0px" y="0px"
	 viewBox="0 0 150 150" style="enable-background:new 0 0 150 150;" xml:space="preserve">
<style type="text/css">
	.st0{display:none;}
	.st1{display:inline;}
	.st2{fill:none;stroke:#FFFFFF;stroke-width:4.461;stroke-linecap:round;stroke-linejoin:round;stroke-miterlimit:22.9256;}
	.st3{fill:none;stroke:#FFFFFF;stroke-width:4.7797;stroke-linecap:round;stroke-linejoin:round;stroke-miterlimit:22.9256;}
	.st4{fill:none;stroke:#FFFFFF;stroke-width:4.4161;stroke-linecap:round;stroke-linejoin:round;stroke-miterlimit:22.9256;}
	.st5{fill:#990000;}
	.st6{fill:#FFFFFF;}
	.st7{fill:#00843D;}
	.st8{fill:#006296;}
</style>
<g id="white_icons" class="st0">
</g>
<g id="green_icons">
</g>
<g id="blue_icons">
	<g>
		<path class="st6" d="M86.3,143.99H20.26c-5.09,0-9.93-4.57-12.47-9.09c-2.58-4.59-2.96-9.03-1.04-12.17
			c3.47-5.69,6.92-11.61,10.57-17.88c2.06-3.55,4.15-7.13,6.25-10.69c0.01-0.02,0.03-0.05,0.04-0.07
			c4.63-7.83,9.34-15.55,14.11-22.54V36.42h-2.22c-1.38,0-2.5-1.12-2.5-2.5c0-1.38,1.12-2.5,2.5-2.5h4.61c0.03,0,0.07,0,0.11,0h26.1
			c0.04,0,0.07,0,0.11,0h4.61c1.38,0,2.5,1.12,2.5,2.5c0,1.38-1.12,2.5-2.5,2.5h-2.21v27.51c4.41-6.4,10.6-11.57,17.99-14.69V11.02
			h-3.15c-1.38,0-2.5-1.12-2.5-2.5s1.12-2.5,2.5-2.5h38.57c1.38,0,2.5,1.12,2.5,2.5s-1.12,2.5-2.5,2.5h-3.14v38.22
			c7.81,3.3,14.28,8.9,18.73,15.81c0.15,0.18,0.28,0.38,0.38,0.59c3.99,6.44,6.25,13.97,6.25,21.84c0,22.88-18.62,41.5-41.5,41.5
			c-0.69,0-1.37-0.02-2.06-0.05c-0.26,1.89-0.97,3.92-2.13,5.97C96.24,139.42,91.39,143.99,86.3,143.99z M27.18,97.89
			c-1.86,3.16-3.71,6.33-5.54,9.47c-3.5,6.02-7.13,12.24-10.62,17.97c-0.9,1.48-0.46,4.27,1.14,7.11c2.09,3.73,5.58,6.54,8.1,6.54
			H86.3c2.54,0,6.03-2.81,8.12-6.54c0.8-1.42,1.3-2.83,1.5-4.07c-16.11-2.77-29.07-14.85-33.13-30.49H27.18z M100.39,123.88
			c0.85,0.06,1.71,0.09,2.57,0.09c20.12,0,36.49-16.37,36.49-36.49c0-6.56-1.79-12.85-4.96-18.31H71.43
			c-0.67,1.15-1.27,2.33-1.81,3.54c6.67,9.92,13.23,21.18,19.58,32.08c3.66,6.29,7.12,12.22,10.61,17.94
			C100.03,123.09,100.22,123.48,100.39,123.88z M67.98,97.89c3.66,12.26,13.59,21.84,26.06,24.98c-3.04-5.05-6.15-10.38-9.17-15.57
			c-1.82-3.12-3.66-6.27-5.51-9.41c-0.02,0-0.04,0-0.06,0H67.98z M66.87,92.89h9.53c-2.92-4.88-5.87-9.68-8.84-14.23
			c-0.72,2.85-1.09,5.8-1.09,8.81C66.47,89.31,66.6,91.12,66.87,92.89z M30.15,92.89h31.67c-0.23-1.77-0.35-3.58-0.35-5.41
			c0-4.94,0.89-9.75,2.54-14.24c-0.12-0.29-0.17-0.6-0.17-0.92v-35.9h-21.1v35.89c0,0.51-0.15,1-0.44,1.42
			C38.21,79.66,34.15,86.19,30.15,92.89z M40.23,72.31h0.01H40.23z M74.92,64.16H131c-3.99-4.81-9.21-8.62-15.28-10.89
			c-0.98-0.36-1.63-1.3-1.63-2.34v-39.9H91.82v39.9c0,1.04-0.65,1.98-1.63,2.34C84.13,55.54,78.91,59.36,74.92,64.16z M89.32,50.93
			h0.01H89.32z"/>
	</g>
</g>
</svg>
