<?xml version="1.0" encoding="utf-8"?>
<!-- Generator: Adobe Illustrator 27.9.0, SVG Export Plug-In . SVG Version: 6.00 Build 0)  -->
<svg version="1.1" xmlns="http://www.w3.org/2000/svg" xmlns:xlink="http://www.w3.org/1999/xlink" x="0px" y="0px"
	 viewBox="0 0 150 150" style="enable-background:new 0 0 150 150;" xml:space="preserve">
<style type="text/css">
	.st0{display:none;}
	.st1{display:inline;}
	.st2{fill:none;stroke:#FFFFFF;stroke-width:4.461;stroke-linecap:round;stroke-linejoin:round;stroke-miterlimit:22.9256;}
	.st3{fill:none;stroke:#FFFFFF;stroke-width:4.7797;stroke-linecap:round;stroke-linejoin:round;stroke-miterlimit:22.9256;}
	.st4{fill:none;stroke:#FFFFFF;stroke-width:4.4161;stroke-linecap:round;stroke-linejoin:round;stroke-miterlimit:22.9256;}
	.st5{fill:#990000;}
	.st6{fill:#FFFFFF;}
	.st7{fill:#00843D;}
	.st8{fill:#006296;}
</style>
<g id="white_icons" class="st0">
</g>
<g id="green_icons">
</g>
<g id="blue_icons">
	<g>
		<g>
			<path class="st6" d="M61.44,145.59c-1.22,0-2.3-0.88-2.52-2.13l-2.77-16.25l-22.98-0.43c-2.66-0.05-5.2-2.55-5.33-5.26
				l-1.29-25.4h-4.49c-2.18,0-5.26-0.26-6.78-2.54c-1.56-2.33-0.58-5.26,0.57-8.06l10.56-25.79c-0.31-2.37-0.46-4.57-0.46-6.85
				c0-15.58,4.2-27.65,12.5-35.88c8.42-8.36,20.96-12.6,37.26-12.6c0.24,0,0.48,0,0.71,0c35.91,0.27,59.12,19.3,59.12,48.48
				c0,7.21-1.52,14.11-4.8,21.7c-2.16,5.24-4.68,9.69-6.91,13.61c-4.27,7.5-7.64,13.43-7.64,22.35c0,13.78,1.24,18.86,5.09,30.99
				c0.43,1.35-0.32,2.78-1.66,3.21c-1.35,0.43-2.78-0.32-3.21-1.66c-3.95-12.45-5.33-18.1-5.33-32.54c0-10.27,4.03-17.36,8.31-24.87
				c2.26-3.97,4.6-8.08,6.65-13.06c3.05-7.07,4.4-13.14,4.4-19.72c0-26.1-21.21-43.12-54.04-43.36c-0.23,0-0.45,0-0.68,0
				c-14.9,0-26.23,3.74-33.66,11.11c-7.29,7.24-10.99,18.09-10.99,32.25c0,2.26,0.16,4.43,0.5,6.83c0.06,0.45,0.01,0.91-0.17,1.33
				L20.57,87.46c-0.83,2.02-1,2.88-1.01,3.24c0.26,0.11,0.95,0.31,2.49,0.31h6.92c1.36,0,2.48,1.07,2.55,2.43l1.42,27.83
				c0.03,0.08,0.26,0.33,0.42,0.41l25,0.47c1.23,0.02,2.26,0.92,2.47,2.13l3.13,18.34c0.24,1.39-0.7,2.71-2.09,2.95
				C61.73,145.58,61.59,145.59,61.44,145.59z M33.4,121.69L33.4,121.69L33.4,121.69z M101.56,81.97c-1.41,0-2.56-1.14-2.56-2.56
				V63.83h-4.96c-1.41,0-2.56-1.14-2.56-2.56V50.21c0-1.41,1.14-2.56,2.56-2.56H99V21.68c0-1.41,1.14-2.56,2.56-2.56
				c1.41,0,2.56,1.14,2.56,2.56v25.98h4.96c1.41,0,2.56,1.14,2.56,2.56v11.06c0,1.41-1.14,2.56-2.56,2.56h-4.96v15.59
				C104.12,80.82,102.97,81.97,101.56,81.97z M96.6,58.71h9.92v-5.95H96.6V58.71z M77.75,81.75c-1.41,0-2.56-1.14-2.56-2.56V44.56
				h-4.96c-1.41,0-2.56-1.14-2.56-2.56V30.94c0-1.41,1.14-2.56,2.56-2.56h4.96v-6.92c0-1.41,1.14-2.56,2.56-2.56
				s2.56,1.14,2.56,2.56v6.92h4.96c1.41,0,2.56,1.14,2.56,2.56V42c0,1.41-1.14,2.56-2.56,2.56h-4.96V79.2
				C80.31,80.61,79.16,81.75,77.75,81.75z M72.79,39.45h9.92V33.5h-9.92V39.45z M53.94,81.54c-1.41,0-2.56-1.14-2.56-2.56v-4.74
				h-4.96c-1.41,0-2.56-1.14-2.56-2.56V60.63c0-1.41,1.14-2.56,2.56-2.56h4.96V21.25c0-1.41,1.14-2.56,2.56-2.56
				s2.56,1.14,2.56,2.56v36.83h4.96c1.41,0,2.56,1.14,2.56,2.56v11.06c0,1.41-1.14,2.56-2.56,2.56H56.5v4.74
				C56.5,80.4,55.35,81.54,53.94,81.54z M48.99,69.14h9.92v-5.95h-9.92V69.14z"/>
		</g>
	</g>
</g>
</svg>
