<?xml version="1.0" encoding="utf-8"?>
<!-- Generator: Adobe Illustrator 27.9.0, SVG Export Plug-In . SVG Version: 6.00 Build 0)  -->
<svg version="1.1" xmlns="http://www.w3.org/2000/svg" xmlns:xlink="http://www.w3.org/1999/xlink" x="0px" y="0px"
	 viewBox="0 0 150 150" style="enable-background:new 0 0 150 150;" xml:space="preserve">
<style type="text/css">
	.st0{display:none;}
	.st1{display:inline;}
	.st2{fill:none;stroke:#FFFFFF;stroke-width:4.461;stroke-linecap:round;stroke-linejoin:round;stroke-miterlimit:22.9256;}
	.st3{fill:none;stroke:#FFFFFF;stroke-width:4.7797;stroke-linecap:round;stroke-linejoin:round;stroke-miterlimit:22.9256;}
	.st4{fill:none;stroke:#FFFFFF;stroke-width:4.4161;stroke-linecap:round;stroke-linejoin:round;stroke-miterlimit:22.9256;}
	.st5{fill:#990000;}
	.st6{fill:#FFFFFF;}
	.st7{fill:#00843D;}
	.st8{fill:#006296;}
</style>
<g id="white_icons" class="st0">
</g>
<g id="green_icons">
</g>
<g id="blue_icons">
	<g>
		<g>
			<path class="st6" d="M133.76,145.43H16.25c-3.65,0-7.23-1.74-9.32-4.55c-1.77-2.37-2.28-5.22-1.45-8.04
				c0.09-0.29,0.21-0.56,0.38-0.81c0.84-1.25,2.53-3.88,4.48-6.94c8.89-13.91,13.77-21.28,15.77-22.96
				c2.01-1.69,4.47-2.58,7.12-2.58h14.8c1.61,0,2.92,1.31,2.92,2.92c0,1.61-1.31,2.92-2.92,2.92h-14.8c-1.3,0-2.4,0.4-3.37,1.21
				c-1.78,1.56-10.44,15.12-14.61,21.64c-1.85,2.89-3.35,5.24-4.28,6.64c-0.17,0.9,0.03,1.73,0.62,2.51
				c0.98,1.32,2.85,2.21,4.64,2.21h117.51c1.79,0,3.66-0.88,4.64-2.2c0.59-0.79,0.79-1.62,0.62-2.52c-0.93-1.39-2.42-3.73-4.27-6.62
				c-4.17-6.52-12.84-20.09-14.62-21.65c-0.97-0.81-2.06-1.21-3.36-1.21h-17c-1.61,0-2.92-1.31-2.92-2.92
				c0-1.61,1.31-2.92,2.92-2.92h17c2.66,0,5.12,0.89,7.12,2.58c2,1.68,6.88,9.05,15.78,22.97c1.95,3.05,3.63,5.68,4.47,6.92
				c0.17,0.25,0.3,0.52,0.38,0.81c0.83,2.82,0.32,5.68-1.46,8.05C140.98,143.69,137.41,145.43,133.76,145.43z M75,125.88
				c-1.19,0-2.27-0.73-2.71-1.85c-4.65-11.77-15.63-25.17-24.46-35.93c-5.93-7.23-11.06-13.48-13.33-18.02
				c-3.16-6.32-4.77-13.13-4.77-20.24C29.73,24.88,50.04,4.57,75,4.57c12.09,0,23.46,4.71,32.01,13.26s13.26,19.92,13.26,32.01
				c0,7.11-1.6,13.92-4.77,20.24c-2.13,4.25-7.06,9.82-12.77,16.27c-9.78,11.04-21.94,24.78-24.89,37.28
				c-0.29,1.24-1.36,2.15-2.63,2.24C75.14,125.88,75.07,125.88,75,125.88z M75,10.41c-21.75,0-39.44,17.69-39.44,39.43
				c0,6.2,1.4,12.13,4.15,17.63c1.98,3.96,6.91,9.97,12.63,16.93c7.5,9.15,16.52,20.14,22.24,30.8
				c5.09-11.61,15.3-23.14,23.78-32.72c5.44-6.14,10.14-11.45,11.92-15.02c2.75-5.5,4.15-11.43,4.15-17.63
				c0-10.53-4.1-20.44-11.55-27.88S85.53,10.41,75,10.41z M75,73.28c-13.18,0-23.91-10.72-23.91-23.91
				c0-13.18,10.72-23.91,23.91-23.91c13.18,0,23.91,10.72,23.91,23.91C98.91,62.56,88.18,73.28,75,73.28z M75,31.31
				c-9.96,0-18.07,8.11-18.07,18.07S65.04,67.44,75,67.44s18.07-8.1,18.07-18.07S84.96,31.31,75,31.31z"/>
		</g>
	</g>
</g>
</svg>
