<?xml version="1.0" encoding="utf-8"?>
<!-- Generator: Adobe Illustrator 27.9.0, SVG Export Plug-In . SVG Version: 6.00 Build 0)  -->
<svg version="1.1" xmlns="http://www.w3.org/2000/svg" xmlns:xlink="http://www.w3.org/1999/xlink" x="0px" y="0px"
	 viewBox="0 0 150 150" style="enable-background:new 0 0 150 150;" xml:space="preserve">
<style type="text/css">
	.st0{display:none;}
	.st1{display:inline;}
	.st2{fill:none;stroke:#FFFFFF;stroke-width:4.461;stroke-linecap:round;stroke-linejoin:round;stroke-miterlimit:22.9256;}
	.st3{fill:none;stroke:#FFFFFF;stroke-width:4.7797;stroke-linecap:round;stroke-linejoin:round;stroke-miterlimit:22.9256;}
	.st4{fill:none;stroke:#FFFFFF;stroke-width:4.4161;stroke-linecap:round;stroke-linejoin:round;stroke-miterlimit:22.9256;}
	.st5{fill:#990000;}
	.st6{fill:#FFFFFF;}
	.st7{fill:#00843D;}
	.st8{fill:#006296;}
</style>
<g id="white_icons" class="st0">
</g>
<g id="green_icons">
</g>
<g id="blue_icons">
	<g>
		<g>
			<g>
				<g>
					<g>
						<path class="st6" d="M45.76,71.31v51.2c0,9.31-7.56,16.87-16.87,16.87c-4.5,0-8.74-1.75-11.93-4.94
							c-3.19-3.2-4.94-7.43-4.94-11.93v-51.2c0-1.33,1.08-2.41,2.41-2.41c1.33,0,2.41,1.08,2.41,2.41v51.2
							c0,3.22,1.26,6.24,3.54,8.52c2.28,2.28,5.3,3.54,8.52,3.54c6.65,0,12.05-5.42,12.05-12.06v-51.2c0-1.33,1.09-2.41,2.42-2.41
							C44.68,68.9,45.76,69.98,45.76,71.31z"/>
					</g>
				</g>
			</g>
			<g>
				<g>
					<g>
						<path class="st6" d="M51.98,62.15c0,1.33-1.08,2.42-2.41,2.42H8.2c-1.33,0-2.42-1.09-2.42-2.42c0-1.33,1.09-2.41,2.42-2.41
							h41.37C50.9,59.75,51.98,60.83,51.98,62.15z"/>
					</g>
				</g>
			</g>
		</g>
		<g>
			<g>
				<g>
					<g>
						<path class="st6" d="M131.51,111.83c-8.2,8.2-19.11,12.71-30.74,12.71c-11.63,0-22.55-4.51-30.75-12.71
							c-12.69-12.7-16.25-32.06-8.97-48.42l-18.5-18.5c-0.94-0.93-0.94-2.47,0-3.4c0.93-0.94,2.47-0.94,3.4,0L65.67,61.2
							c0.73,0.73,0.91,1.85,0.46,2.77c-7.35,14.86-4.4,32.72,7.32,44.44c15.07,15.07,39.59,15.07,54.65,0
							c15.07-15.07,15.07-39.59,0-54.65c-11.72-11.73-29.57-14.67-44.43-7.33c-0.92,0.46-2.03,0.27-2.77-0.46L61.2,26.27
							c-0.46-0.45-0.71-1.06-0.71-1.7s0.25-1.25,0.71-1.7c0.93-0.94,2.47-0.94,3.4,0l18.5,18.5c16.35-7.28,35.72-3.71,48.41,8.98
							C148.45,67.3,148.45,94.87,131.51,111.83z"/>
					</g>
				</g>
			</g>
			<g>
				<g>
					<g>
						<path class="st6" d="M63.92,13.01c0,0.64-0.25,1.25-0.71,1.7L34.6,43.33c-0.46,0.46-1.07,0.71-1.71,0.71
							c-0.64,0-1.25-0.25-1.7-0.71s-0.71-1.06-0.71-1.7c0-0.64,0.25-1.26,0.71-1.7L59.8,11.31c0.91-0.91,2.5-0.91,3.41,0
							C63.68,11.76,63.92,12.37,63.92,13.01z"/>
					</g>
				</g>
			</g>
			<g>
				<g>
					<g>
						<path class="st6" d="M134.21,85.9c-0.38,0.51-0.94,0.84-1.59,0.93c-10.52,1.47-21.25,2.22-31.87,2.22
							c-10.63,0-21.34-0.75-31.88-2.22c-0.63-0.09-1.2-0.43-1.59-0.93c-0.38-0.52-0.55-1.15-0.47-1.78c0.19-1.32,1.4-2.23,2.72-2.05
							c20.71,2.9,41.7,2.9,62.41,0c0.63-0.09,1.27,0.07,1.77,0.46c0.52,0.39,0.85,0.95,0.94,1.6
							C134.78,84.74,134.61,85.38,134.21,85.9z"/>
					</g>
				</g>
			</g>
		</g>
	</g>
</g>
</svg>
