<?xml version="1.0" encoding="utf-8"?>
<!-- Generator: Adobe Illustrator 27.9.0, SVG Export Plug-In . SVG Version: 6.00 Build 0)  -->
<svg version="1.1" xmlns="http://www.w3.org/2000/svg" xmlns:xlink="http://www.w3.org/1999/xlink" x="0px" y="0px"
	 viewBox="0 0 150 150" style="enable-background:new 0 0 150 150;" xml:space="preserve">
<style type="text/css">
	.st0{display:none;}
	.st1{display:inline;}
	.st2{fill:none;stroke:#FFFFFF;stroke-width:4.461;stroke-linecap:round;stroke-linejoin:round;stroke-miterlimit:22.9256;}
	.st3{fill:none;stroke:#FFFFFF;stroke-width:4.7797;stroke-linecap:round;stroke-linejoin:round;stroke-miterlimit:22.9256;}
	.st4{fill:none;stroke:#FFFFFF;stroke-width:4.4161;stroke-linecap:round;stroke-linejoin:round;stroke-miterlimit:22.9256;}
	.st5{fill:#990000;}
	.st6{fill:#FFFFFF;}
	.st7{fill:#00843D;}
	.st8{fill:#006296;}
</style>
<g id="white_icons" class="st0">
</g>
<g id="green_icons">
</g>
<g id="blue_icons">
	<g>
		<g>
			<path class="st6" d="M75,145.59c-38.92,0-70.59-31.67-70.59-70.59C4.41,36.08,36.08,4.41,75,4.41S145.59,36.08,145.59,75
				C145.59,113.92,113.92,145.59,75,145.59z M75,9.33C38.79,9.33,9.33,38.79,9.33,75c0,36.21,29.46,65.67,65.67,65.67
				s65.67-29.46,65.67-65.67C140.67,38.79,111.21,9.33,75,9.33z"/>
		</g>
		<g>
			<path class="st6" d="M99.19,98.01c-3.95,5.81-11.69,9.03-21.26,9.03c-0.15,0-0.31,0-0.47-0.01v14.49c0,1.36-1.1,2.46-2.46,2.46
				c-1.37,0-2.46-1.1-2.46-2.46v-14.63c0-0.05,0-0.12,0.01-0.17c-5.89-0.69-11.73-2.64-17.9-4.69l-1.25-0.42
				c-1.29-0.44-1.99-1.83-1.56-3.12c0.43-1.29,1.83-1.99,3.12-1.55l1.26,0.42c5.99,1.99,11.65,3.88,17.1,4.49
				c10.06,1.14,18.22-1.32,21.81-6.61c1.99-2.91,2.2-6.32,0.6-9.35c-2.81-5.28-10.42-8.43-20.39-8.43h-0.32
				c-12.26,0-21.4-4-25.12-11c-2.43-4.55-2.09-9.9,0.91-14.29c4.05-5.95,11.96-9.24,21.73-9.21V28.48c0-1.36,1.09-2.46,2.46-2.46
				c1.36,0,2.46,1.1,2.46,2.46v14.63c0,0.04,0,0.09-0.01,0.13c0.03,0,0.08,0.01,0.11,0.01c5.99,0.68,11.94,2.66,18.23,4.76
				l1.18,0.39c1.29,0.43,1.99,1.82,1.56,3.11c-0.44,1.29-1.83,1.99-3.12,1.56l-1.18-0.39c-6.3-2.1-11.75-3.92-17.22-4.53
				C66.82,47,58.54,49.54,54.88,54.94c-1.98,2.9-2.21,6.24-0.63,9.21c2.79,5.26,10.55,8.39,20.79,8.39h0.32
				c11.99,0,20.99,4.02,24.72,11.05C102.52,88.21,102.2,93.6,99.19,98.01z"/>
		</g>
	</g>
</g>
</svg>
