<?xml version="1.0" encoding="utf-8"?>
<!-- Generator: Adobe Illustrator 27.9.0, SVG Export Plug-In . SVG Version: 6.00 Build 0)  -->
<svg version="1.1" xmlns="http://www.w3.org/2000/svg" xmlns:xlink="http://www.w3.org/1999/xlink" x="0px" y="0px"
	 viewBox="0 0 150 150" style="enable-background:new 0 0 150 150;" xml:space="preserve">
<style type="text/css">
	.st0{display:none;}
	.st1{display:inline;}
	.st2{fill:none;stroke:#FFFFFF;stroke-width:4.461;stroke-linecap:round;stroke-linejoin:round;stroke-miterlimit:22.9256;}
	.st3{fill:none;stroke:#FFFFFF;stroke-width:4.7797;stroke-linecap:round;stroke-linejoin:round;stroke-miterlimit:22.9256;}
	.st4{fill:none;stroke:#FFFFFF;stroke-width:4.4161;stroke-linecap:round;stroke-linejoin:round;stroke-miterlimit:22.9256;}
	.st5{fill:#990000;}
	.st6{fill:#FFFFFF;}
	.st7{fill:#00843D;}
	.st8{fill:#006296;}
</style>
<g id="white_icons" class="st0">
</g>
<g id="green_icons">
</g>
<g id="blue_icons">
	<g>
		<g>
			<path class="st6" d="M102.5,132.76c0,1.42-1.16,2.57-2.57,2.57H37.98c-0.93,0-1.74-0.49-2.2-1.24c-0.31,2.69-0.46,5.53-0.46,8.51
				c0,1.42-1.14,2.57-2.57,2.57c-1.42,0-2.57-1.16-2.57-2.57c0-31.54,16.49-47.64,33.37-61.41c1.1-0.89,2.72-0.73,3.62,0.37
				c0.9,1.1,0.74,2.72-0.37,3.63c-3.34,2.72-6.63,5.5-9.72,8.43h19.16c1.42,0,2.57,1.14,2.57,2.57c0,1.42-1.16,2.57-2.57,2.57H53.81
				c-0.53,0-1.01-0.16-1.42-0.42c-3.76,4.07-7.13,8.5-9.85,13.55h51.24c1.43,0,2.57,1.16,2.57,2.57s-1.14,2.57-2.57,2.57H40.52
				c-0.15,0-0.3-0.01-0.43-0.05c-1.75,4.19-3.08,8.78-3.87,13.89c0.46-0.45,1.08-0.71,1.76-0.71h61.94
				C101.34,130.18,102.5,131.34,102.5,132.76z"/>
		</g>
		<g>
			<path class="st6" d="M117.25,145.19c-1.42,0-2.57-1.15-2.57-2.57c0-32.76-19.95-48.47-41.06-65.11
				C52.26,60.69,30.18,43.3,30.18,7.39c0-1.42,1.15-2.57,2.57-2.57s2.57,1.15,2.57,2.57c0,33.42,20.14,49.28,41.46,66.08
				c21.15,16.66,43.03,33.89,43.03,69.15C119.82,144.04,118.67,145.19,117.25,145.19z"/>
		</g>
		<g>
			<path class="st6" d="M111.27,20.8H49.33c-1.42,0-2.57-1.16-2.57-2.57c0-1.42,1.16-2.57,2.57-2.57h61.94
				c1.42,0,2.57,1.16,2.57,2.57C113.85,19.65,112.69,20.8,111.27,20.8z"/>
			<path class="st6" d="M119.82,7.39c0,30.05-15.76,47.35-32.78,61.57c-0.49,0.4-1.08,0.6-1.66,0.6c-0.73,0-1.46-0.31-1.97-0.93
				c-0.92-1.09-0.77-2.71,0.32-3.63c3.02-2.53,5.89-5.06,8.56-7.64H73.32c-1.42,0-2.57-1.16-2.57-2.57c0-1.42,1.16-2.57,2.57-2.57
				h22.43c0.45,0,0.87,0.11,1.24,0.31c3.86-4.22,7.17-8.64,9.86-13.43H56.57c-1.43,0-2.57-1.16-2.57-2.57
				c0-1.43,1.14-2.57,2.57-2.57h52.85c3.39-7.66,5.25-16.29,5.25-26.55c0-1.43,1.16-2.57,2.57-2.57S119.82,5.96,119.82,7.39z"/>
		</g>
	</g>
</g>
</svg>
