<?xml version="1.0" encoding="utf-8"?>
<!-- Generator: Adobe Illustrator 27.9.0, SVG Export Plug-In . SVG Version: 6.00 Build 0)  -->
<svg version="1.1" xmlns="http://www.w3.org/2000/svg" xmlns:xlink="http://www.w3.org/1999/xlink" x="0px" y="0px"
	 viewBox="0 0 150 150" style="enable-background:new 0 0 150 150;" xml:space="preserve">
<style type="text/css">
	.st0{display:none;}
	.st1{display:inline;}
	.st2{fill:none;stroke:#FFFFFF;stroke-width:4.461;stroke-linecap:round;stroke-linejoin:round;stroke-miterlimit:22.9256;}
	.st3{fill:none;stroke:#FFFFFF;stroke-width:4.7797;stroke-linecap:round;stroke-linejoin:round;stroke-miterlimit:22.9256;}
	.st4{fill:none;stroke:#FFFFFF;stroke-width:4.4161;stroke-linecap:round;stroke-linejoin:round;stroke-miterlimit:22.9256;}
	.st5{fill:#990000;}
	.st6{fill:#FFFFFF;}
	.st7{fill:#00843D;}
	.st8{fill:#006296;}
</style>
<g id="white_icons" class="st0">
</g>
<g id="green_icons">
</g>
<g id="blue_icons">
	<g>
		<g>
			<path class="st6" d="M17.13,73.96c-0.03-0.38-0.16-0.74-0.36-1.04v0.07c0,0.16,0.01,0.32,0.02,0.48c0,0.12,0.01,0.24,0.03,0.35
				c0.01,0.11,0.02,0.22,0.04,0.33c0.11,0.71,0.34,1.4,0.68,2.07C17.36,75.47,17.21,74.73,17.13,73.96z M17.13,73.96
				c-0.03-0.38-0.16-0.74-0.36-1.04v0.07c0,0.16,0.01,0.32,0.02,0.48c0,0.12,0.01,0.24,0.03,0.35c0.01,0.11,0.02,0.22,0.04,0.33
				c0.11,0.71,0.34,1.4,0.68,2.07C17.36,75.47,17.21,74.73,17.13,73.96z M110.18,110.47c-0.45-0.22-0.95-0.46-1.51-0.64
				c0.58,0.36,1.21,0.64,1.87,0.82C110.42,110.59,110.3,110.52,110.18,110.47z M112.63,115.84c-1.24,0-2.44-0.18-3.57-0.51
				c1.08,0.46,2.46,0.9,4.33,0.9c2.41,0,4.75-1,6.64-2.83C117.88,114.98,115.29,115.84,112.63,115.84z M17.13,73.96
				c-0.03-0.38-0.16-0.74-0.36-1.04v0.07c0,0.16,0.01,0.32,0.02,0.48c0,0.12,0.01,0.24,0.03,0.35c0.01,0.11,0.02,0.22,0.04,0.33
				c0.11,0.71,0.34,1.4,0.68,2.07C17.36,75.47,17.21,74.73,17.13,73.96z M17.13,73.96c-0.03-0.38-0.16-0.74-0.36-1.04v0.07
				c0,0.16,0.01,0.32,0.02,0.48c0,0.12,0.01,0.24,0.03,0.35c0.01,0.11,0.02,0.22,0.04,0.33c0.11,0.71,0.34,1.4,0.68,2.07
				C17.36,75.47,17.21,74.73,17.13,73.96z"/>
		</g>
		<g>
			<path class="st6" d="M145.59,65.85c0-7.03-4-13.39-10.12-16.36c0-0.12,0.01-0.24,0.01-0.36c0-7.86-6.22-14.25-13.89-14.35
				c-1.42-6.53-7.11-11.35-13.88-11.35c-0.93,0-1.86,0.1-2.76,0.27c-3.78-3.36-8.58-5.19-13.64-5.19c-2.42,0-4.78,0.41-7.03,1.24
				c-2.58-2.42-5.96-3.78-9.51-3.78c-3.2,0-6.29,1.12-8.77,3.13c-3.35-1.96-7.13-2.99-11.05-2.99c-7.2,0-13.98,3.61-18.13,9.56
				c-1.09-0.27-2.21-0.4-3.34-0.4c-7.85,0-14.23,6.51-14.23,14.52c0,0.96,0.09,1.89,0.27,2.8c-8.53,1.3-15.09,8.84-15.09,17.92
				c0,6.01,2.92,11.61,7.74,14.97c0.09,0.07,0.18,0.13,0.28,0.2c0.13,0.77,0.32,1.53,0.54,2.26c0,0.02,0.01,0.04,0.02,0.07
				c2.27,7.41,9.01,12.65,16.89,12.65c1.47,0,2.91-0.18,4.31-0.53c2.77,9.97,11.62,16.94,22.03,16.94c4.36,0,8-0.93,10.83-2.78
				c1.71-1.12,3.16-1.54,4.32-1.26c2.07,0.51,3.63,3.32,4.92,5.64l12.25,20.31c1.48,3.08,4.58,5.06,7.95,5.06
				c4.88,0,8.85-4.04,8.85-9.02c0-2.05-0.59-3.42-1.07-4.52c-0.36-0.84-0.6-1.38-0.6-2.17c0-1.58,0.85-2.98,2.21-3.66
				c0.39-0.2,0.64-0.28,0.91-0.25h0.01c0.3,0.03,0.64,0.2,1.26,0.49c0.28,0.14,0.6,0.27,0.93,0.42c0.02,0,0.03,0.01,0.05,0.02
				c1.13,0.33,2.33,0.51,3.57,0.51c2.66,0,5.25-0.86,7.4-2.44c0.01-0.01,0.01-0.01,0.02-0.02c0.21-0.21,0.42-0.43,0.62-0.65
				c0.42-0.47,0.8-0.98,1.14-1.51c0,0,0.01,0,0.01-0.01c1.47-2.28,2.24-5.07,2.17-7.9c11.13-0.97,19.91-10.55,19.91-22.18
				c0-2.04-0.27-4.07-0.8-6.01C144.73,72.32,145.59,69.15,145.59,65.85z M120.25,56.93c-1.35,0-2.45,1.1-2.45,2.45
				c0,5.13-4.04,9.31-9.01,9.31c-1.8,0-3.54-0.55-5.03-1.6c-1.11-0.77-2.64-0.5-3.41,0.61c-0.77,1.11-0.5,2.63,0.61,3.4
				c2.32,1.62,5.02,2.48,7.84,2.48c3.2,0,6.14-1.11,8.49-2.97c2.09,5.91,7.64,10.16,14.14,10.16c2.62,0,5.19-0.7,7.43-2.01
				c0.11,0.78,0.16,1.57,0.16,2.37c0,5.61-2.6,10.61-6.62,13.79c-0.15,0.05-0.3,0.14-0.45,0.24c-2.04,1.42-4.52,2.03-6.97,1.7
				c-5.56-0.74-9.48-6-8.75-11.72c0.17-1.34-0.77-2.57-2.11-2.74c-0.68-0.09-1.35,0.13-1.85,0.53c-0.9-0.25-1.89,0.04-2.52,0.8
				c-1.79,2.17-4.28,3.6-7.03,4c-3.78,0.57-7.58-0.87-10.12-3.84c-0.88-1.02-2.42-1.13-3.45-0.26c-1.02,0.88-1.14,2.42-0.26,3.46
				c3.12,3.63,7.56,5.65,12.2,5.65c0.78,0,1.57-0.05,2.35-0.17c2.97-0.45,5.73-1.7,8.01-3.62c0.75,4.71,3.62,8.79,7.7,11.05
				c-0.15,0.38-0.22,0.78-0.16,1.2c0.01,0.14,0.01,0.29,0.01,0.43c0.01,0.3,0.02,0.61,0.05,0.92c0.32,2.57-0.45,5.16-2.02,6.95
				c-0.03,0.03-0.08,0.08-0.1,0.11c-0.01,0.02-0.01,0.02-0.02,0.02c-1.04,1.11-2.29,1.72-3.51,1.72c-1.19,0-1.98-0.3-2.79-0.67
				c-0.02,0-0.04,0-0.05-0.02c-0.66-0.17-1.29-0.46-1.87-0.82c-2.3-1.39-3.85-3.98-3.85-6.94c0-1.35-1.09-2.45-2.45-2.45
				c-1.35,0-2.45,1.1-2.45,2.45c0,3.01,1.01,5.79,2.72,7.99c-2.41,1.66-3.86,4.4-3.86,7.43c0,1.8,0.55,3.09,1,4.11
				c0.38,0.9,0.66,1.54,0.66,2.59c0,2.27-1.77,4.13-3.96,4.13c-1.51,0-2.91-0.92-3.58-2.35c-0.03-0.08-0.08-0.15-0.12-0.23
				l-12.26-20.35c-1.63-2.91-3.86-6.91-7.99-7.94c-0.62-0.15-1.26-0.23-1.9-0.23c-1.99,0-4.09,0.72-6.27,2.15
				c-2.01,1.32-4.75,1.98-8.14,1.98c-8.63,0-15.93-6.15-17.64-14.75c0.09-0.07,0.17-0.13,0.26-0.2c3.39-2.64,5.56-6.48,6.08-10.81
				c0.27-2.29,0.07-4.6-0.6-6.77c0.62,0.08,1.25,0.12,1.89,0.12c0.24,0,0.49,0,0.73-0.01c4.02-0.2,7.73-1.98,10.44-5.03
				c2.46-2.77,3.84-6.37,3.88-10.11c0.02-1.35-1.07-2.46-2.41-2.48h-0.03c-1.34,0-2.42,1.09-2.45,2.42
				c-0.03,2.57-0.97,5.02-2.65,6.93c-1.83,2.05-4.32,3.26-7.01,3.38c-2.67,0.13-5.26-0.83-7.26-2.69c-0.99-0.91-2.53-0.86-3.46,0.12
				c-0.92,0.99-0.87,2.54,0.12,3.46c0.55,0.52,1.15,0.99,1.76,1.41c0.05,0.33,0.17,0.64,0.37,0.92c1.51,2.26,2.16,5.01,1.83,7.74
				c-0.37,3.02-1.87,5.7-4.23,7.53c-2.26,1.76-5.06,2.52-7.86,2.17c-0.16-0.02-0.33-0.02-0.48,0c-0.01-0.01-0.01-0.01-0.02,0
				c-4.02-0.79-7.39-3.5-9.13-7.22c-0.32-0.67-0.58-1.38-0.78-2.11c0,0,0,0,0-0.01c-0.35-0.66-0.58-1.36-0.68-2.07
				c-0.02-0.11-0.03-0.22-0.04-0.33c-0.02-0.11-0.03-0.23-0.03-0.35c-0.01-0.16-0.02-0.32-0.02-0.48v-0.07
				c0.01-2.2,1.03-4.34,2.92-5.65c1.1-0.77,1.37-2.29,0.6-3.4c-0.77-1.11-2.3-1.38-3.4-0.61c-2.15,1.5-3.64,3.62-4.4,5.98
				c-2.02-2.37-3.19-5.46-3.19-8.72c0-7.29,5.75-13.23,12.84-13.23c0.17,0,0.35,0.01,0.52,0.01c0.83,0.02,1.65-0.37,2.12-1.07
				c0.48-0.71,0.55-1.61,0.21-2.38c-0.58-1.27-0.87-2.64-0.87-4.06c0-5.32,4.2-9.63,9.34-9.63c1.2,0,2.36,0.23,3.46,0.68
				c1.13,0.46,2.44,0.01,3.04-1.04c3.12-5.42,8.86-8.8,14.97-8.8c3.57,0,6.99,1.1,9.9,3.19c1.01,0.72,2.39,0.58,3.23-0.34
				c1.75-1.94,4.13-2.99,6.69-2.99c2.7,0,5.25,1.22,7,3.36c0.71,0.86,1.91,1.13,2.92,0.65c2.09-0.98,4.32-1.47,6.62-1.47
				c4.22,0,8.2,1.67,11.2,4.72c0.65,0.65,1.61,0.89,2.48,0.62c0.88-0.28,1.79-0.42,2.73-0.42c4.99,0,9.09,4.03,9.33,9.18
				c0.02,0.71,0.36,1.36,0.9,1.79c0.55,0.45,1.26,0.63,1.96,0.5c0.5-0.09,1.01-0.13,1.52-0.13c5.06,0,9.18,4.25,9.18,9.47
				c0,0.51-0.04,1.03-0.13,1.53c-0.17,1.16,0.49,2.29,1.6,2.69c5.17,1.85,8.64,6.87,8.64,12.5c0,2.51-0.67,4.91-1.96,7.01
				c-0.22,0.1-0.43,0.23-0.62,0.4c-1.85,1.69-4.23,2.61-6.7,2.61c-5.54,0-10.05-4.61-10.13-10.31v-0.01c0.9-1.87,1.4-3.97,1.4-6.19
				C122.69,58.02,121.59,56.93,120.25,56.93z"/>
		</g>
		<g>
			<path class="st6" d="M102.33,43.2c-0.8,1.09-2.33,1.33-3.42,0.53c-1.32-0.96-2.92-1.38-4.52-1.21c-3.65,0.4-6.29,3.8-5.89,7.58
				c0.03,0.29,0.01,0.59-0.08,0.86c-0.32,4.33-2.98,8.26-7.06,9.99c0.68,2.2,0.86,4.54,0.5,6.86c-0.62,4.02-2.75,7.54-6,9.9
				c-2.52,1.82-5.47,2.77-8.49,2.77c-0.78,0-1.57-0.07-2.35-0.18c-1.34-0.22-2.24-1.48-2.02-2.82c0.22-1.33,1.48-2.23,2.8-2.02
				c2.53,0.41,5.09-0.2,7.18-1.72c2.2-1.59,3.63-3.96,4.06-6.69c0.38-2.46-0.13-4.97-1.44-7.07c-0.72-1.14-0.36-2.65,0.78-3.37
				c0.82-0.5,1.83-0.47,2.59,0.01c3.48-1.16,5.39-5.02,4.27-8.62c-0.49-1.61-1.53-2.96-2.94-3.82c-1.15-0.71-1.52-2.21-0.82-3.37
				c0.71-1.14,2.22-1.51,3.36-0.8c1.1,0.67,2.08,1.52,2.87,2.5c1.84-2.63,4.73-4.48,8.12-4.86c2.82-0.32,5.64,0.43,7.95,2.11
				C102.87,40.58,103.12,42.1,102.33,43.2z"/>
		</g>
		<g>
			<path class="st6" d="M109.01,115.31c-0.76-0.23-1.5-0.53-2.2-0.91c0.3,0.03,0.64,0.2,1.26,0.49
				C108.35,115.02,108.67,115.15,109.01,115.31z"/>
			<path class="st6" d="M116.9,109.62c-1.04,1.11-2.29,1.72-3.51,1.72c-1.19,0-1.98-0.3-2.79-0.67c0.64,0.18,1.33,0.28,2.03,0.28
				C114.15,110.95,115.64,110.49,116.9,109.62z"/>
			<path class="st6" d="M121.81,111.22c-0.09,0.5-0.35,0.98-0.75,1.34c-0.33,0.29-0.66,0.57-1.01,0.83
				c0.21-0.21,0.42-0.43,0.62-0.65C121.09,112.26,121.48,111.75,121.81,111.22z"/>
		</g>
		<g>
			<path class="st6" d="M12.98,77.94c-0.38-0.79-0.64-1.62-0.83-2.46c0.09,0.07,0.18,0.13,0.28,0.2
				C12.57,76.45,12.75,77.21,12.98,77.94z"/>
			<path class="st6" d="M18.34,78.32c-0.32-0.67-0.58-1.38-0.78-2.11c0.12,0.22,0.24,0.43,0.38,0.64
				C18.24,77.3,18.37,77.82,18.34,78.32z"/>
		</g>
	</g>
</g>
</svg>
