<?xml version="1.0" encoding="utf-8"?>
<!-- Generator: Adobe Illustrator 27.9.0, SVG Export Plug-In . SVG Version: 6.00 Build 0)  -->
<svg version="1.1" xmlns="http://www.w3.org/2000/svg" xmlns:xlink="http://www.w3.org/1999/xlink" x="0px" y="0px"
	 viewBox="0 0 150 150" style="enable-background:new 0 0 150 150;" xml:space="preserve">
<style type="text/css">
	.st0{display:none;}
	.st1{display:inline;}
	.st2{fill:none;stroke:#FFFFFF;stroke-width:4.461;stroke-linecap:round;stroke-linejoin:round;stroke-miterlimit:22.9256;}
	.st3{fill:none;stroke:#FFFFFF;stroke-width:4.7797;stroke-linecap:round;stroke-linejoin:round;stroke-miterlimit:22.9256;}
	.st4{fill:none;stroke:#FFFFFF;stroke-width:4.4161;stroke-linecap:round;stroke-linejoin:round;stroke-miterlimit:22.9256;}
	.st5{fill:#990000;}
	.st6{fill:#FFFFFF;}
	.st7{fill:#00843D;}
	.st8{fill:#006296;}
</style>
<g id="white_icons" class="st0">
</g>
<g id="green_icons">
</g>
<g id="blue_icons">
	<g>
		<g>
			<path class="st6" d="M75.16,144.73c-1.54,0-2.79-1.25-2.79-2.79V79.7l-11.33,8.82l0.77,46.61c0.04,3.34-1.43,6.05-4.13,7.64
				c-3.29,1.94-8.12,1.85-11.73-0.22c-0.56-0.32-1.08-0.68-1.55-1.08c-1.71,1.69-4.19,2.69-7.13,2.69c-5.3,0-10.79-3.36-10.79-8.99
				l0.67-46.71L10.08,74.34c-5.55-3.28-6.31-8.79-4.16-12.6c2.14-3.8,7.36-6.19,12.8-3.13c5.53,3.11,8.94,5.99,11.67,8.31
				c4.3,3.65,6.67,5.65,14.1,5.69c0.06,0,0.13,0,0.19,0c6.96,0,9.34-1.92,14.02-5.72c2.84-2.3,6.38-5.17,11.91-8.28
				c0.59-0.33,1.17-0.6,1.75-0.8V8.07c0-1.54,1.25-2.79,2.79-2.79c1.54,0,2.79,1.25,2.79,2.79v3.69h33.35
				c1.54,0,2.79,1.25,2.79,2.79v4.93h28.31c1.12,0,2.13,0.67,2.57,1.69c0.44,1.03,0.23,2.22-0.54,3.03l-9.98,10.48l9.89,9.48
				c0.82,0.79,1.08,2,0.66,3.06c-0.43,1.06-1.45,1.75-2.59,1.75h-31.12c-1.54,0-2.79-1.25-2.79-2.79v-6.8H77.95v18.13
				c2.34,0.62,4.26,2.16,5.37,4.07c2.19,3.78,1.48,9.35-4.08,12.77l-1.29,1.01v66.58C77.95,143.48,76.7,144.73,75.16,144.73z
				 M46.91,134.62c0.04,0.18,0.06,0.37,0.06,0.56c0,1.26,0.96,2.07,1.76,2.53c1.86,1.07,4.55,1.18,6.12,0.25
				c0.95-0.56,1.39-1.43,1.38-2.74l-0.8-47.99c-0.01-0.88,0.38-1.71,1.08-2.25l19.44-15.14c0.09-0.07,0.18-0.14,0.28-0.19
				c2.91-1.74,3.08-3.86,2.27-5.26c-0.82-1.42-2.73-2.25-5.14-0.9c-5.12,2.87-8.31,5.46-11.13,7.75c-4.98,4.04-8.6,6.97-17.55,6.97
				c-0.07,0-0.13,0-0.2,0c-9.46-0.05-13.09-3.12-17.69-7.01c-2.68-2.27-5.73-4.85-10.79-7.7c-2.43-1.36-4.36-0.48-5.2,1
				c-0.79,1.41-0.61,3.49,2.27,5.12c0.14,0.08,0.28,0.17,0.4,0.28l18.29,15.14c0.65,0.54,1.02,1.35,1.01,2.19l-0.69,48
				c0,1.99,2.69,3.36,5.2,3.36c1.51,0,4.05-0.44,4.05-3.4v-25.52c0-1.54,1.25-2.79,2.79-2.79c1.54,0,2.79,1.25,2.79,2.79V134.62z
				 M114.07,43.39h21.38l-6.88-6.6c-1.11-1.07-1.15-2.83-0.09-3.94l7.4-7.77h-21.79v11.52c0,0.13-0.01,0.25-0.02,0.37V43.39z
				 M77.95,33.79h30.55V17.35H77.95V33.79z M44.64,68.78c-8.75,0-15.88-7.12-15.88-15.88s7.12-15.88,15.88-15.88
				c8.75,0,15.87,7.12,15.87,15.88S53.39,68.78,44.64,68.78z M44.64,42.61c-5.67,0-10.29,4.62-10.29,10.29s4.62,10.29,10.29,10.29
				c5.67,0,10.29-4.62,10.29-10.29S50.31,42.61,44.64,42.61z"/>
		</g>
	</g>
</g>
</svg>
