<?xml version="1.0" encoding="utf-8"?>
<!-- Generator: Adobe Illustrator 27.9.0, SVG Export Plug-In . SVG Version: 6.00 Build 0)  -->
<svg version="1.1" xmlns="http://www.w3.org/2000/svg" xmlns:xlink="http://www.w3.org/1999/xlink" x="0px" y="0px"
	 viewBox="0 0 150 150" style="enable-background:new 0 0 150 150;" xml:space="preserve">
<style type="text/css">
	.st0{display:none;}
	.st1{display:inline;}
	.st2{fill:none;stroke:#FFFFFF;stroke-width:4.461;stroke-linecap:round;stroke-linejoin:round;stroke-miterlimit:22.9256;}
	.st3{fill:none;stroke:#FFFFFF;stroke-width:4.7797;stroke-linecap:round;stroke-linejoin:round;stroke-miterlimit:22.9256;}
	.st4{fill:none;stroke:#FFFFFF;stroke-width:4.4161;stroke-linecap:round;stroke-linejoin:round;stroke-miterlimit:22.9256;}
	.st5{fill:#990000;}
	.st6{fill:#FFFFFF;}
	.st7{fill:#00843D;}
	.st8{fill:#006296;}
</style>
<g id="white_icons" class="st0">
</g>
<g id="green_icons">
</g>
<g id="blue_icons">
	<g>
		<g>
			<path class="st6" d="M75,146.28c-1.1,0-2.1-0.67-2.51-1.71c-5.66-14.35-18.99-29.01-29.7-40.8c-7.45-8.2-13.89-15.28-16.71-20.92
				c-3.82-7.63-5.76-15.86-5.76-24.45C20.32,28.25,44.85,3.72,75,3.72c10.52,0,20.74,3,29.55,8.66c0.43,0.28,0.86,0.56,1.28,0.85
				c1.23,0.84,1.54,2.53,0.7,3.76c-0.84,1.23-2.53,1.54-3.76,0.7c-0.38-0.26-0.76-0.51-1.15-0.76c-7.94-5.11-17.14-7.8-26.62-7.8
				c-27.17,0-49.28,22.1-49.28,49.28c0,7.74,1.74,15.15,5.18,22.03c2.49,4.97,8.69,11.8,15.88,19.7
				c9.47,10.42,20.93,23.03,27.79,36.08c5.84-14.13,18.68-27.22,29.29-38.03c6.95-7.08,12.95-13.2,15.23-17.75
				c3.44-6.87,5.19-14.28,5.19-22.03c0-9.51-2.72-18.75-7.86-26.71c-0.81-1.25-0.45-2.93,0.8-3.73c1.25-0.81,2.93-0.45,3.74,0.8
				c5.71,8.83,8.72,19.08,8.72,29.64c0,8.59-1.94,16.82-5.76,24.45c-2.66,5.31-8.94,11.71-16.21,19.12
				c-11.8,12.03-26.49,27-30.09,42.23c-0.27,1.15-1.26,1.99-2.44,2.07C75.13,146.27,75.06,146.28,75,146.28z"/>
		</g>
		<g>
			<path class="st6" d="M75,102.12c-24.42,0-44.29-19.87-44.29-44.29S50.58,13.54,75,13.54c8.76,0,17.22,2.55,24.49,7.38
				c1.24,0.83,1.58,2.5,0.75,3.75c-0.83,1.24-2.5,1.58-3.75,0.76c-6.37-4.24-13.81-6.48-21.5-6.48c-21.44,0-38.89,17.44-38.89,38.89
				S53.56,96.72,75,96.72s38.89-17.44,38.89-38.89c0-6.23-1.43-12.17-4.24-17.67c-0.68-1.33-0.15-2.96,1.18-3.64
				c1.33-0.68,2.96-0.15,3.64,1.18c3.2,6.27,4.83,13.04,4.83,20.13C119.29,82.25,99.42,102.12,75,102.12z"/>
		</g>
		<g>
			<path class="st6" d="M74.55,76.9c-0.78,0-1.53-0.34-2.05-0.94l-20.11-23.3c-0.98-1.13-0.85-2.84,0.28-3.81s2.84-0.85,3.81,0.28
				l17.87,20.7l46.57-64.83c0.87-1.21,2.56-1.49,3.77-0.62c1.21,0.87,1.49,2.56,0.62,3.77L76.74,75.78
				c-0.48,0.67-1.25,1.09-2.07,1.12C74.63,76.9,74.59,76.9,74.55,76.9z"/>
		</g>
	</g>
</g>
</svg>
