<?xml version="1.0" encoding="utf-8"?>
<!-- Generator: Adobe Illustrator 27.9.0, SVG Export Plug-In . SVG Version: 6.00 Build 0)  -->
<svg version="1.1" xmlns="http://www.w3.org/2000/svg" xmlns:xlink="http://www.w3.org/1999/xlink" x="0px" y="0px"
	 viewBox="0 0 150 150" style="enable-background:new 0 0 150 150;" xml:space="preserve">
<style type="text/css">
	.st0{display:none;}
	.st1{display:inline;}
	.st2{fill:none;stroke:#FFFFFF;stroke-width:4.461;stroke-linecap:round;stroke-linejoin:round;stroke-miterlimit:22.9256;}
	.st3{fill:none;stroke:#FFFFFF;stroke-width:4.7797;stroke-linecap:round;stroke-linejoin:round;stroke-miterlimit:22.9256;}
	.st4{fill:none;stroke:#FFFFFF;stroke-width:4.4161;stroke-linecap:round;stroke-linejoin:round;stroke-miterlimit:22.9256;}
	.st5{fill:#990000;}
	.st6{fill:#FFFFFF;}
	.st7{fill:#00843D;}
	.st8{fill:#006296;}
</style>
<g id="white_icons" class="st0">
</g>
<g id="green_icons">
</g>
<g id="blue_icons">
	<g>
		<g>
			<path class="st6" d="M69.42,130.08c-1.55,0-2.81-1.26-2.81-2.81V7.56c0-1.55,1.26-2.81,2.81-2.81s2.81,1.26,2.81,2.81v119.71
				C72.23,128.82,70.97,130.08,69.42,130.08z"/>
		</g>
		<g>
			<path class="st6" d="M130.22,41.71H79.4c-1.55,0-2.81-1.26-2.81-2.81c0-1.55,1.26-2.81,2.81-2.81H129l9.46-10.06L129,15.97H79.4
				c-1.55,0-2.81-1.26-2.81-2.81s1.26-2.81,2.81-2.81h50.81c0.77,0,1.51,0.32,2.05,0.88l12.1,12.87c1.02,1.08,1.02,2.77,0,3.85
				l-12.1,12.87C131.73,41.39,130.99,41.71,130.22,41.71z"/>
		</g>
		<g>
			<path class="st6" d="M107.82,93.83h-28.4c-1.55,0-2.81-1.26-2.81-2.81s1.26-2.81,2.81-2.81h27.18l9.46-10.06l-9.46-10.06H79.43
				c-1.55,0-2.81-1.26-2.81-2.81s1.26-2.81,2.81-2.81h28.4c0.77,0,1.51,0.32,2.05,0.88l12.1,12.87c1.02,1.08,1.02,2.77,0,3.85
				l-12.1,12.87C109.34,93.51,108.6,93.83,107.82,93.83z"/>
		</g>
		<g>
			<path class="st6" d="M59.32,67.62H19.78c-0.77,0-1.51-0.32-2.05-0.88L5.64,53.86c-1.02-1.08-1.02-2.77,0-3.85l12.1-12.87
				c0.53-0.56,1.27-0.88,2.05-0.88h39.53c1.55,0,2.81,1.26,2.81,2.81c0,1.55-1.26,2.81-2.81,2.81H21l-9.46,10.06L21,62h38.32
				c1.55,0,2.81,1.26,2.81,2.81C62.12,66.36,60.87,67.62,59.32,67.62z"/>
		</g>
		<g>
			<path class="st6" d="M29.48,145.24c-1.22,0-2.34-0.8-2.7-2.03c-0.43-1.49,0.43-3.05,1.92-3.48c9.44-2.73,23.43-4.38,38.39-4.54
				c0.01,0,0.02,0,0.03,0c1.54,0,2.79,1.24,2.81,2.78c0.02,1.55-1.23,2.82-2.78,2.84c-14.47,0.15-27.92,1.72-36.88,4.31
				C30,145.2,29.74,145.24,29.48,145.24z"/>
		</g>
		<g>
			<path class="st6" d="M109.36,145.25c-0.26,0-0.52-0.04-0.78-0.11c-9.51-2.75-23.78-4.33-39.16-4.33c-0.76,0-1.52,0-2.28,0.01
				c-0.01,0-0.02,0-0.03,0c-1.54,0-2.79-1.24-2.81-2.78c-0.01-1.55,1.23-2.82,2.78-2.83c0.77-0.01,1.55-0.01,2.33-0.01
				c15.88,0,30.72,1.66,40.72,4.55c1.49,0.43,2.35,1.99,1.92,3.48C111.7,144.45,110.58,145.25,109.36,145.25z"/>
		</g>
	</g>
</g>
</svg>
