<?xml version="1.0" encoding="utf-8"?>
<!-- Generator: Adobe Illustrator 27.9.0, SVG Export Plug-In . SVG Version: 6.00 Build 0)  -->
<svg version="1.1" xmlns="http://www.w3.org/2000/svg" xmlns:xlink="http://www.w3.org/1999/xlink" x="0px" y="0px"
	 viewBox="0 0 150 150" style="enable-background:new 0 0 150 150;" xml:space="preserve">
<style type="text/css">
	.st0{display:none;}
	.st1{display:inline;}
	.st2{fill:none;stroke:#FFFFFF;stroke-width:4.461;stroke-linecap:round;stroke-linejoin:round;stroke-miterlimit:22.9256;}
	.st3{fill:none;stroke:#FFFFFF;stroke-width:4.7797;stroke-linecap:round;stroke-linejoin:round;stroke-miterlimit:22.9256;}
	.st4{fill:none;stroke:#FFFFFF;stroke-width:4.4161;stroke-linecap:round;stroke-linejoin:round;stroke-miterlimit:22.9256;}
	.st5{fill:#990000;}
	.st6{fill:#FFFFFF;}
	.st7{fill:#00843D;}
	.st8{fill:#006296;}
</style>
<g id="white_icons" class="st0">
</g>
<g id="green_icons">
</g>
<g id="blue_icons">
	<g>
		<g>
			<rect x="30.24" y="60.89" class="st6" width="45.89" height="6.12"/>
		</g>
		<g>
			<rect x="30.24" y="82.98" class="st6" width="45.89" height="6.11"/>
		</g>
		<g>
			<path class="st6" d="M142.99,59.33c-0.7-1.69-1.74-3.24-3.07-4.57c-2.55-2.54-6.19-4-9.97-4c-3.79,0-7.43,1.46-9.97,4
				l-19.56,19.57V41.86c0-0.8-0.32-1.57-0.9-2.17L77.45,17.62c-0.58-0.59-1.34-0.9-2.17-0.9H9.01c-1.68,0-3.06,1.37-3.06,3.05
				v110.46c0,1.68,1.38,3.06,3.06,3.06h88.36c1.68,0,3.06-1.38,3.06-3.06v-16.01l39.49-39.51c2.66-2.65,4.13-6.2,4.13-9.97
				C144.05,62.85,143.69,61.02,142.99,59.33z M89.99,38.8H78.33V27.14L89.99,38.8z M94.32,127.16H12.05V22.83h60.17v19.04
				c0,1.68,1.37,3.06,3.06,3.06h19.04v35.51L76.94,97.81c-2.66,2.65-4.13,6.2-4.13,9.97c0,2.68,0.77,5.27,2.22,7.55l-2.52,2.52
				l4.32,4.32l2.52-2.52c2.28,1.46,4.88,2.22,7.55,2.22c2.63,0,5.16-0.73,7.41-2.16V127.16z M92.56,113.43
				c-1.43,1.43-3.49,2.25-5.65,2.25c-2.16,0-4.21-0.81-5.66-2.25c-1.5-1.51-2.34-3.52-2.34-5.66s0.84-4.14,2.34-5.65l17.46-17.46
				l11.3,11.3L92.56,113.43z M135.61,70.38l-21.28,21.27l-11.3-11.3l21.28-21.27c1.5-1.5,3.51-2.34,5.65-2.34
				c2.15,0,4.14,0.84,5.65,2.34c1.51,1.51,2.34,3.51,2.35,5.66C137.95,66.87,137.11,68.88,135.61,70.38z"/>
		</g>
	</g>
</g>
</svg>
